<svg width="375" height="338" viewBox="0 0 375 338" fill="none" xmlns="http://www.w3.org/2000/svg">
<g clip-path="url(#clip0_49_991)">
<path d="M41.0131 110.121C41.6419 108.829 42.6444 107.756 43.8906 107.04L193.934 21.8416C193.934 21.8416 191.294 20.3956 190.7 20.0854C190.157 19.8018 189.478 19.7742 188.87 20.1228L40.6119 105.26C39.3299 105.997 38.3068 107.111 37.6827 108.451L41.0131 110.12V110.121Z" fill="white"/>
<path d="M41.0131 110.301C40.9853 110.301 40.9575 110.295 40.9322 110.282L37.6017 108.612C37.5597 108.591 37.5275 108.555 37.5121 108.51C37.4966 108.466 37.4991 108.417 37.5189 108.375C38.1569 107 39.2063 105.857 40.522 105.104L188.78 19.9662C189.083 19.791 189.426 19.6953 189.777 19.6882C190.127 19.681 190.473 19.7626 190.784 19.9254C191.373 20.2329 193.994 21.6689 194.021 21.6834C194.049 21.6988 194.072 21.7215 194.089 21.7491C194.105 21.7767 194.114 21.8082 194.114 21.8403C194.115 21.8725 194.106 21.9041 194.09 21.932C194.074 21.9598 194.051 21.9829 194.023 21.9988L43.9799 107.197C42.7645 107.894 41.7872 108.94 41.1756 110.2C41.1608 110.23 41.1376 110.256 41.1089 110.274C41.0802 110.292 41.047 110.301 41.0131 110.302V110.301ZM37.9225 108.369L40.9325 109.878C41.58 108.625 42.5758 107.585 43.8004 106.883L193.563 21.8445C192.864 21.4622 191.086 20.4908 190.616 20.2455C190.36 20.111 190.073 20.0436 189.784 20.0495C189.494 20.0555 189.211 20.1346 188.96 20.2795L40.7021 105.417C39.5029 106.103 38.5353 107.131 37.9227 108.369H37.9225Z" fill="black"/>
<path d="M37.6827 108.451C37.2367 109.407 37.0075 110.45 37.0114 111.506L37.4777 232.431C37.4804 233.334 37.9012 234.092 38.5253 234.58C39.1771 235.09 42.8812 237.17 43.7316 236.953C43.6394 236.68 40.2902 113.283 40.2902 113.283C40.286 112.188 40.5333 111.106 41.0132 110.121L37.6827 108.451Z" fill="#ADC4CB"/>
<path d="M43.6005 237.147C42.4139 237.147 38.9486 235.141 38.4138 234.723C37.7067 234.169 37.2996 233.334 37.2969 232.432L36.8306 111.507C36.825 110.424 37.06 109.355 37.5187 108.375C37.5289 108.353 37.5435 108.333 37.5614 108.317C37.5794 108.301 37.6004 108.288 37.6232 108.28C37.646 108.273 37.6702 108.269 37.6943 108.271C37.7185 108.272 37.742 108.279 37.7636 108.29L41.0941 109.959C41.1366 109.981 41.169 110.018 41.1842 110.063C41.1995 110.108 41.1964 110.157 41.1756 110.2C40.7094 111.161 40.4684 112.215 40.4709 113.283C40.5041 114.503 43.793 235.641 43.9099 236.924C43.9172 236.968 43.9075 237.014 43.8828 237.052C43.858 237.089 43.8201 237.116 43.7764 237.128C43.7188 237.141 43.6597 237.148 43.6005 237.147V237.147ZM37.7701 108.697C37.384 109.582 37.1871 110.539 37.1921 111.505L37.6584 232.431C37.6608 233.222 38.0172 233.953 38.6366 234.438C39.2993 234.957 42.5843 236.757 43.5475 236.789C43.3305 231.728 40.8743 141.468 40.1094 113.288C40.1065 112.224 40.3333 111.172 40.7743 110.203L37.7699 108.697L37.7701 108.697Z" fill="black"/>
<path d="M192.063 151.233L44.8873 236.577C43.0576 237.638 40.7643 236.324 40.7561 234.21L40.2905 113.284C40.2856 112.018 40.6161 110.774 41.2484 109.677C41.8806 108.58 42.7922 107.67 43.8903 107.04L192.149 21.9012C193.421 21.1712 195.006 22.0911 195.002 23.5565L194.666 146.731C194.663 147.643 194.422 148.539 193.965 149.329C193.508 150.119 192.852 150.775 192.063 151.233V151.233Z" fill="white"/>
<path d="M43.5069 237.134C43.0062 237.134 42.5055 237.003 42.0486 236.741C41.1301 236.215 40.5793 235.269 40.5753 234.211L40.1097 113.285C40.0996 110.649 41.5138 108.196 43.8002 106.883L192.059 21.7446C192.713 21.3692 193.492 21.371 194.145 21.7493C194.797 22.1276 195.185 22.8034 195.183 23.5571L194.847 146.731C194.841 148.644 193.81 150.43 192.154 151.39L192.063 151.233L192.154 151.39L44.978 236.734C44.518 237.001 44.0124 237.134 43.5071 237.134L43.5069 237.134ZM193.098 21.8262C192.796 21.8269 192.5 21.9067 192.239 22.0578L43.9803 107.196C41.806 108.445 40.4615 110.777 40.471 113.284L40.9367 234.209C40.9403 235.137 41.423 235.966 42.2283 236.428C43.0335 236.889 43.9935 236.887 44.7963 236.421L191.972 151.077C193.517 150.181 194.48 148.516 194.485 146.73L194.821 23.5564C194.822 22.9335 194.502 22.3749 193.963 22.0622C193.7 21.9086 193.401 21.8273 193.097 21.8266L193.098 21.8262Z" fill="black"/>
<path d="M40.3012 118.574L40.2905 113.284C40.2856 112.018 40.6161 110.774 41.2484 109.677C41.8806 108.58 42.7922 107.67 43.8903 107.04L192.149 21.9012C193.421 21.1712 195.006 22.0911 195.002 23.5565L194.991 29.8329L40.3012 118.574Z" fill="#1D2027"/>
<path d="M40.3011 118.754C40.2533 118.754 40.2075 118.735 40.1736 118.701C40.1398 118.668 40.1206 118.622 40.1204 118.574L40.1097 113.285C40.0996 110.649 41.5138 108.196 43.8002 106.883L192.059 21.7446C192.713 21.3692 193.492 21.3708 194.145 21.7493C194.797 22.1276 195.185 22.8034 195.183 23.5571L195.172 29.8333C195.172 29.865 195.164 29.8962 195.148 29.9236C195.132 29.951 195.109 29.9738 195.082 29.9895L40.3912 118.73C40.3638 118.746 40.3327 118.754 40.3011 118.754ZM193.098 21.8263C192.796 21.8269 192.5 21.9067 192.239 22.0579L43.9803 107.196C41.8062 108.445 40.4615 110.777 40.4712 113.283L40.4812 118.262L194.811 29.7281L194.821 23.5562C194.823 22.9331 194.502 22.3744 193.963 22.0616C193.7 21.908 193.402 21.8267 193.098 21.8261L193.098 21.8263Z" fill="black"/>
<path d="M192.377 28.2875C193.133 26.9792 193.142 25.5704 192.398 25.141C191.653 24.7115 190.437 25.4239 189.682 26.7322C188.926 28.0405 188.917 29.4492 189.661 29.8787C190.405 30.3082 191.621 29.5957 192.377 28.2875Z" fill="white"/>
<path d="M190.15 30.1854C189.94 30.1854 189.744 30.1355 189.571 30.0352C188.727 29.5485 188.707 28.058 189.525 26.642C190.343 25.226 191.645 24.4981 192.488 24.9846C193.331 25.4713 193.351 26.9619 192.533 28.3779C192.153 29.0373 191.646 29.5746 191.106 29.8907C190.772 30.0865 190.446 30.1854 190.15 30.1854H190.15ZM191.91 25.1971C191.263 25.1971 190.404 25.8426 189.838 26.8226C189.145 28.0218 189.106 29.3498 189.752 29.7223C190.053 29.8961 190.469 29.8452 190.923 29.5791C191.41 29.2942 191.87 28.8035 192.22 28.1974C192.913 26.9982 192.953 25.6702 192.307 25.2977C192.189 25.2296 192.055 25.1973 191.91 25.1973V25.1971Z" fill="black"/>
<path d="M186.688 31.6685C187.444 30.3602 187.453 28.9515 186.709 28.522C185.964 28.0925 184.748 28.805 183.993 30.1132C183.237 31.4215 183.228 32.8302 183.972 33.2597C184.716 33.6892 185.932 32.9768 186.688 31.6685Z" fill="white"/>
<path d="M184.461 33.5663C184.251 33.5663 184.055 33.5165 183.882 33.4162C183.038 32.9295 183.018 31.4391 183.836 30.023C184.217 29.3636 184.724 28.8263 185.263 28.5102C185.835 28.1754 186.38 28.1241 186.799 28.3656C187.642 28.8523 187.662 30.3429 186.844 31.7589C186.463 32.4183 185.956 32.9555 185.417 33.2717C185.083 33.4675 184.757 33.5663 184.461 33.5663H184.461ZM186.218 28.5772C185.987 28.5772 185.724 28.6596 185.446 28.822C184.96 29.1069 184.499 29.5975 184.149 30.2036C183.456 31.4028 183.417 32.7308 184.062 33.1033C184.364 33.2771 184.78 33.2262 185.234 32.9601C185.721 32.6752 186.181 32.1845 186.531 31.5784C187.224 30.3792 187.264 29.0514 186.618 28.6787C186.501 28.611 186.366 28.5774 186.218 28.5774V28.5772Z" fill="black"/>
<path d="M181.063 34.8503C181.819 33.542 181.828 32.1333 181.084 31.7038C180.34 31.2743 179.124 31.9868 178.368 33.295C177.612 34.6033 177.603 36.012 178.347 36.4415C179.092 36.871 180.308 36.1586 181.063 34.8503Z" fill="white"/>
<path d="M178.837 36.748C178.626 36.748 178.431 36.6982 178.257 36.5979C177.413 36.1112 177.394 34.6206 178.212 33.2047C178.593 32.5453 179.099 32.008 179.639 31.6919C180.21 31.3571 180.756 31.3058 181.174 31.5473C182.018 32.034 182.038 33.5244 181.22 34.9406C180.839 35.6 180.332 36.1372 179.793 36.4534C179.458 36.6492 179.133 36.748 178.837 36.748ZM180.594 31.7589C180.362 31.7589 180.099 31.8413 179.822 32.0037C179.336 32.2886 178.875 32.7792 178.525 33.3853C177.832 34.5845 177.792 35.9123 178.438 36.285C178.739 36.459 179.156 36.4079 179.61 36.1418C180.096 35.8569 180.557 35.366 180.907 34.7601C181.6 33.5609 181.639 32.2329 180.994 31.8604C180.876 31.7927 180.741 31.7591 180.594 31.7591V31.7589Z" fill="black"/>
</g>
<g clip-path="url(#clip1_49_991)">
<path d="M343.535 56.1122C346.215 60.624 347.578 65.8797 347.569 71.3141L346.976 245.696C346.972 248.466 345.615 250.765 343.642 252.173C341.75 253.522 335.094 257.226 332.335 258.749C332.314 258.762 332.294 258.776 332.273 258.789C334.393 257.402 335.874 255.022 335.879 252.128L336.173 77.7882C336.184 72.0862 334.534 66.5046 331.425 61.7251L343.535 56.1121V56.1122Z" fill="black"/>
<path d="M332.274 258.97C332.235 258.97 332.197 258.958 332.166 258.934C332.134 258.911 332.111 258.878 332.1 258.841C332.089 258.804 332.09 258.764 332.104 258.727C332.117 258.691 332.142 258.659 332.175 258.638L332.203 258.619L332.233 258.599C334.432 257.134 335.694 254.779 335.698 252.128L335.993 77.7879C336.002 72.1072 334.37 66.5868 331.273 61.8236C331.259 61.8019 331.25 61.7774 331.246 61.7518C331.242 61.7262 331.244 61.7 331.251 61.6752C331.258 61.6503 331.271 61.6272 331.287 61.6075C331.304 61.5879 331.325 61.572 331.349 61.5611L343.459 55.948C343.5 55.9292 343.546 55.9261 343.589 55.9393C343.632 55.9526 343.668 55.9811 343.691 56.0196C346.355 60.5067 347.759 65.7955 347.75 71.3141L347.157 245.696C347.152 248.362 345.909 250.777 343.746 252.32C341.857 253.667 335.206 257.371 332.427 258.904L332.404 258.919C332.392 258.928 332.38 258.936 332.368 258.943C332.339 258.961 332.307 258.97 332.273 258.97L332.274 258.97ZM331.689 61.8019C334.751 66.5841 336.364 72.1072 336.354 77.7888L336.06 252.129C336.056 254.26 335.276 256.208 333.872 257.691C337.06 255.918 341.968 253.145 343.537 252.026C345.604 250.552 346.792 248.244 346.796 245.696L347.389 71.3137C347.398 65.9182 346.041 60.7459 343.463 56.3451L331.689 61.8021V61.8019Z" fill="black"/>
<path d="M331.425 61.7253C328.851 57.7654 325.359 54.4854 321.247 52.164L262.53 19.0005C259.922 17.5277 256.945 17.7049 254.628 19.0296C255.84 18.3062 263.782 13.5737 266.227 12.3153C268.564 11.1134 271.449 10.9779 273.935 12.3815L332.344 45.7318C337.236 48.1908 340.983 51.8139 343.536 56.1123L331.425 61.7253H331.425Z" fill="white"/>
<path d="M331.425 61.906C331.395 61.906 331.365 61.8985 331.339 61.8841C331.312 61.8698 331.29 61.849 331.273 61.8238C328.726 57.9055 325.228 54.6198 321.158 52.3214L262.441 19.1578C260.024 17.7927 257.137 17.8034 254.718 19.1864C254.676 19.2095 254.628 19.2154 254.582 19.203C254.536 19.1905 254.498 19.1606 254.474 19.1197C254.45 19.0789 254.443 19.0303 254.455 18.9844C254.466 18.9385 254.495 18.899 254.536 18.8744C255.46 18.3224 263.637 13.4452 266.144 12.1546C268.686 10.8473 271.632 10.8735 274.024 12.2239L332.434 45.5748C337.144 47.9424 341.04 51.5559 343.691 56.0199C343.704 56.0417 343.712 56.0659 343.715 56.091C343.718 56.1161 343.716 56.1416 343.708 56.1658C343.701 56.1899 343.688 56.2123 343.672 56.2313C343.655 56.2503 343.634 56.2656 343.611 56.2761L331.5 61.8892C331.477 61.9003 331.451 61.906 331.425 61.906H331.425ZM258.608 17.7797C259.986 17.7797 261.363 18.134 262.619 18.8431L321.335 52.0067C325.41 54.3078 328.919 57.5868 331.49 61.4957L343.277 56.0328C340.664 51.7069 336.86 48.2038 332.263 45.8931L273.846 12.5381C271.56 11.248 268.743 11.2245 266.309 12.4758C264.463 13.4257 259.522 16.3341 256.695 18.0101C257.321 17.8571 257.963 17.7797 258.608 17.7795V17.7797Z" fill="black"/>
<path d="M323.896 259.017L265.549 225.145C256.663 219.986 251.183 210.498 251.156 200.222L250.686 26.2596C250.404 19.8301 257.228 16.0074 262.529 19.0012L321.247 52.1638C330.485 57.3814 336.191 67.1774 336.173 77.7888L335.879 252.128C335.869 258.273 329.209 262.101 323.895 259.016L323.896 259.017Z" fill="#FF6124"/>
<path d="M327.9 260.288C326.493 260.288 325.086 259.916 323.805 259.173L265.458 225.301C256.552 220.131 251.003 210.521 250.975 200.222L250.506 26.2599C250.374 23.2651 251.799 20.5499 254.318 19.0039C256.855 17.4466 260.036 17.3852 262.618 18.8437L321.336 52.0067C330.617 57.2486 336.372 67.1279 336.354 77.7893L336.06 252.128C336.055 255.08 334.524 257.72 331.966 259.19C330.692 259.922 329.296 260.288 327.9 260.289V260.288ZM258.609 18.1528C257.161 18.1528 255.741 18.5541 254.507 19.3121C252.101 20.7882 250.741 23.3825 250.867 26.2516L251.336 200.221C251.363 210.393 256.844 219.883 265.639 224.989L323.986 258.86C326.425 260.276 329.341 260.282 331.786 258.877C334.231 257.471 335.694 254.948 335.698 252.128L335.992 77.7888C336.01 67.2578 330.326 57.4994 321.158 52.3214L262.44 19.1584C261.271 18.4985 259.952 18.1521 258.609 18.1528V18.1528Z" fill="black"/>
<path d="M299.863 56.9449L286.814 49.5362C285.145 48.589 284.188 46.9701 283.708 45.1248C283.015 42.4583 285.034 41.2739 286.319 42.004L300.084 49.8206C300.917 50.294 301.609 50.9819 302.088 51.8128C302.567 52.6437 302.814 53.5875 302.806 54.5464L302.799 55.2532C302.785 56.7522 301.167 57.6849 299.863 56.9449Z" fill="black"/>
<path d="M300.833 57.3849C300.47 57.3849 300.106 57.2907 299.774 57.1021L286.725 49.6932C285.156 48.8027 284.083 47.281 283.533 45.1701C283.187 43.8383 283.474 42.6641 284.301 42.0293C284.929 41.5476 285.756 41.4761 286.408 41.8468L300.173 49.6634C301.034 50.1531 301.749 50.8641 302.244 51.7229C302.738 52.5816 302.995 53.557 302.986 54.5481L302.979 55.2548C302.972 56.0234 302.571 56.7115 301.905 57.0952C301.579 57.2843 301.21 57.3842 300.833 57.3849V57.3849ZM299.952 56.7879C300.508 57.1036 301.171 57.1014 301.724 56.7822C302.278 56.4629 302.612 55.8908 302.618 55.2516L302.625 54.5448C302.633 53.6182 302.393 52.7062 301.931 51.9032C301.468 51.1002 300.8 50.4354 299.994 49.9776L286.23 42.161C285.704 41.8621 285.033 41.923 284.521 42.316C284.181 42.5769 283.438 43.3685 283.883 45.0792C284.406 47.092 285.422 48.5388 286.903 49.3792L299.952 56.7881V56.7879Z" fill="black"/>
</g>
<g clip-path="url(#clip2_49_991)">
<path d="M318.197 110.564C319.984 113.668 320.925 117.188 320.925 120.77L321.358 177.115C321.358 180.548 319.48 182.224 316.97 183.898C318.112 182.605 319.479 180.25 319.479 178.291V122.035C319.479 118.341 318.483 114.788 316.68 111.706L318.197 110.564Z" fill="black"/>
<path d="M316.97 184.078C316.936 184.078 316.902 184.068 316.872 184.05C316.843 184.031 316.82 184.004 316.806 183.972C316.791 183.94 316.787 183.905 316.792 183.871C316.797 183.836 316.812 183.804 316.835 183.778C318.021 182.435 319.299 180.145 319.299 178.291V122.035C319.299 118.44 318.339 114.9 316.524 111.797C316.501 111.759 316.494 111.714 316.502 111.671C316.511 111.627 316.536 111.588 316.571 111.562L318.088 110.42C318.108 110.404 318.132 110.393 318.157 110.388C318.182 110.382 318.208 110.382 318.233 110.387C318.258 110.392 318.282 110.403 318.302 110.418C318.323 110.433 318.34 110.452 318.353 110.474C320.155 113.606 321.104 117.156 321.106 120.77L321.539 177.113C321.539 180.766 319.425 182.477 317.071 184.048C317.041 184.068 317.006 184.078 316.971 184.078L316.97 184.078ZM316.916 111.754C318.713 114.882 319.659 118.427 319.66 122.035V178.291C319.66 179.847 318.816 181.681 317.849 183.066C319.694 181.711 321.177 180.077 321.177 177.115L320.744 120.771C320.744 117.293 319.845 113.861 318.141 110.832L316.916 111.754Z" fill="black"/>
<path d="M316.68 111.706C314.903 108.669 312.372 106.141 309.332 104.369L225.314 55.3938C223.052 54.0762 220.488 54.3075 218.564 55.5492C221.131 53.7297 224.88 53.4307 227.182 54.3746L310.778 103.104C313.859 104.9 316.417 107.472 318.197 110.564L316.68 111.706V111.706Z" fill="white"/>
<path d="M316.68 111.887C316.648 111.887 316.617 111.879 316.59 111.863C316.562 111.847 316.54 111.825 316.524 111.797C314.761 108.788 312.253 106.284 309.242 104.525L225.224 55.5501C223.172 54.3554 220.658 54.4133 218.662 55.7012C218.622 55.7264 218.574 55.7352 218.528 55.7256C218.482 55.716 218.442 55.6889 218.416 55.6499C218.389 55.611 218.379 55.5633 218.387 55.5169C218.396 55.4706 218.422 55.4294 218.46 55.4019C221.245 53.4268 225.068 53.3122 227.25 54.2074C227.258 54.2106 227.266 54.2143 227.273 54.2184L310.869 102.948C313.976 104.762 316.556 107.356 318.353 110.474C318.375 110.512 318.382 110.557 318.374 110.6C318.365 110.644 318.341 110.682 318.305 110.709L316.788 111.851C316.757 111.874 316.719 111.887 316.68 111.887H316.68ZM222.065 54.3312C223.215 54.3312 224.366 54.6325 225.405 55.2376L309.423 104.213C312.429 105.968 314.943 108.454 316.732 111.44L317.96 110.516C316.198 107.514 313.693 105.015 310.687 103.26L227.102 54.5371C225.722 53.9753 223.663 53.8338 221.653 54.344C221.79 54.3355 221.928 54.3312 222.065 54.3312H222.065Z" fill="black"/>
<path d="M308.162 184.759L226.472 136.572C219.74 132.601 215.609 125.367 215.609 117.549V60.9731C215.609 55.9911 221.01 52.886 225.313 55.3943L309.332 104.37C315.615 108.033 319.48 114.76 319.48 122.035V178.292C319.48 184.102 313.165 187.711 308.162 184.759L308.162 184.759Z" fill="#1D2027"/>
<path d="M311.973 185.994C310.63 185.994 309.289 185.634 308.07 184.915L226.38 136.727C219.625 132.743 215.428 125.394 215.428 117.549V60.9731C215.428 58.5679 216.673 56.4166 218.758 55.2181C220.842 54.0198 223.327 54.0274 225.405 55.2382L309.423 104.214C315.738 107.895 319.661 114.724 319.661 122.035V178.292C319.661 181.086 318.213 183.582 315.787 184.968C314.59 185.652 313.281 185.994 311.973 185.994H311.973ZM308.253 184.603C310.547 185.956 313.296 185.975 315.607 184.654C317.919 183.333 319.299 180.955 319.299 178.292V122.035C319.299 114.852 315.445 108.143 309.241 104.526L225.223 55.5505C223.258 54.4055 220.909 54.3984 218.938 55.5315C216.967 56.6646 215.79 58.6988 215.79 60.9731V117.549C215.79 125.267 219.918 132.496 226.563 136.416L308.253 184.603Z" fill="black"/>
<path d="M225.86 97.5472L307.784 145.303C308.366 145.642 309.096 145.222 309.096 144.549V141.386C309.096 141.082 309.016 140.784 308.865 140.52C308.713 140.257 308.495 140.037 308.233 139.884L226.313 92.1315C225.727 91.7899 224.991 92.2128 224.991 92.8911V96.0351C224.991 96.3411 225.072 96.6418 225.224 96.9071C225.376 97.1724 225.596 97.3931 225.86 97.5472H225.86Z" fill="#ADC4CB"/>
<path d="M308.224 145.604C308.037 145.603 307.854 145.553 307.694 145.459L225.769 97.7033C225.478 97.5329 225.236 97.2893 225.068 96.9967C224.9 96.704 224.811 96.3726 224.811 96.0351V92.8909C224.811 92.5068 225.009 92.1634 225.342 91.972C225.503 91.878 225.687 91.8288 225.873 91.8294C226.06 91.8299 226.243 91.8803 226.404 91.9753L308.324 139.728C308.613 139.898 308.853 140.14 309.02 140.431C309.187 140.722 309.276 141.051 309.276 141.387V144.549C309.276 144.931 309.079 145.272 308.748 145.462C308.589 145.555 308.408 145.604 308.223 145.604L308.224 145.604ZM225.951 97.391L307.876 145.147C308.092 145.273 308.351 145.274 308.568 145.149C308.785 145.024 308.915 144.8 308.915 144.549V141.387C308.915 141.114 308.843 140.847 308.707 140.611C308.572 140.375 308.377 140.178 308.142 140.041L226.222 92.2874C226.003 92.1602 225.742 92.1593 225.522 92.2854C225.303 92.4116 225.172 92.6379 225.172 92.8909V96.0351C225.173 96.3094 225.245 96.5788 225.381 96.8166C225.518 97.0545 225.714 97.2525 225.951 97.391V97.391Z" fill="black"/>
<path d="M224.991 105.063V108.207C224.991 108.513 225.072 108.814 225.224 109.079C225.376 109.344 225.596 109.565 225.86 109.719L262.981 131.357C263.562 131.696 264.292 131.277 264.292 130.604V127.441C264.292 127.137 264.212 126.838 264.061 126.575C263.909 126.311 263.691 126.092 263.429 125.939L226.313 104.303C225.727 103.962 224.991 104.385 224.991 105.063V105.063Z" fill="white"/>
<path d="M263.419 131.659C263.233 131.658 263.05 131.608 262.889 131.514L225.769 109.875C225.478 109.705 225.236 109.461 225.068 109.169C224.9 108.876 224.811 108.545 224.811 108.207V105.063C224.811 104.679 225.009 104.335 225.342 104.144C225.503 104.05 225.687 104.001 225.873 104.001C226.06 104.002 226.243 104.052 226.404 104.147L263.52 125.783C263.809 125.953 264.049 126.195 264.216 126.486C264.383 126.776 264.472 127.106 264.472 127.441V130.604C264.472 130.985 264.275 131.327 263.944 131.517C263.784 131.609 263.604 131.658 263.419 131.659H263.419ZM225.87 104.364C225.751 104.364 225.631 104.395 225.522 104.457C225.415 104.518 225.326 104.606 225.265 104.713C225.203 104.819 225.171 104.94 225.172 105.063V108.207C225.172 108.482 225.244 108.751 225.381 108.989C225.518 109.227 225.714 109.425 225.951 109.563L263.071 131.201C263.288 131.328 263.547 131.328 263.764 131.204C263.87 131.144 263.958 131.056 264.019 130.951C264.08 130.846 264.111 130.726 264.111 130.604V127.441C264.11 127.169 264.039 126.902 263.903 126.666C263.767 126.43 263.572 126.233 263.338 126.095L226.222 104.46C226.115 104.397 225.994 104.364 225.87 104.364V104.364Z" fill="black"/>
<path d="M297.231 167.662C300.891 165.656 301.048 158.9 297.583 152.572C294.117 146.244 288.34 142.74 284.68 144.746C281.02 146.752 280.863 153.508 284.329 159.836C287.795 166.164 293.572 169.668 297.231 167.662Z" fill="white"/>
<path d="M294.929 168.411C293.597 168.411 292.127 167.947 290.614 167.029C288.15 165.535 285.862 163.011 284.171 159.923C280.662 153.518 280.852 146.638 284.593 144.587C288.335 142.537 294.233 146.08 297.741 152.485C299.432 155.573 300.327 158.861 300.26 161.742C300.192 164.659 299.147 166.818 297.318 167.821C296.598 168.215 295.793 168.411 294.929 168.411V168.411ZM286.982 144.36C286.188 144.36 285.44 144.536 284.767 144.905C281.2 146.859 281.075 153.519 284.487 159.749C286.149 162.782 288.391 165.258 290.801 166.72C293.18 168.163 295.433 168.442 297.145 167.503C298.856 166.566 299.834 164.517 299.899 161.734C299.964 158.915 299.085 155.692 297.424 152.659C294.656 147.604 290.395 144.36 286.982 144.36V144.36Z" fill="black"/>
<path d="M309.922 175.137C313.582 173.131 313.739 166.375 310.274 160.047C306.808 153.718 301.031 150.215 297.371 152.221C293.711 154.226 293.554 160.982 297.02 167.311C300.486 173.639 306.263 177.142 309.922 175.137Z" fill="#FF6124"/>
<path d="M307.643 175.877C304.087 175.877 299.695 172.571 296.861 167.397C295.17 164.309 294.276 161.022 294.343 158.141C294.411 155.223 295.455 153.065 297.284 152.062C299.113 151.06 301.494 151.341 303.989 152.854C306.453 154.348 308.741 156.872 310.432 159.96C313.94 166.365 313.751 173.244 310.009 175.295C309.29 175.689 308.49 175.877 307.643 175.877V175.877ZM299.675 151.834C298.87 151.834 298.123 152.014 297.458 152.379C295.747 153.317 294.769 155.366 294.704 158.149C294.638 160.968 295.517 164.191 297.178 167.224C299.947 172.278 304.207 175.522 307.621 175.522C308.415 175.522 309.162 175.347 309.836 174.978C313.402 173.023 313.528 166.364 310.115 160.133C308.454 157.1 306.212 154.625 303.801 153.163C302.347 152.281 300.94 151.834 299.675 151.834Z" fill="black"/>
<path d="M297.583 152.571C297.518 152.452 297.451 152.333 297.382 152.215L297.371 152.221C293.711 154.227 293.554 160.983 297.019 167.311C297.084 167.432 297.151 167.551 297.22 167.669C297.223 167.667 297.229 167.663 297.232 167.661C300.891 165.657 301.048 158.901 297.583 152.571Z" fill="#ADC4CB"/>
<path d="M297.22 167.849C297.188 167.849 297.157 167.841 297.13 167.825C297.102 167.81 297.08 167.787 297.064 167.76C296.994 167.64 296.926 167.519 296.86 167.396C293.353 160.992 293.543 154.113 297.285 152.062C297.37 152.015 297.489 152.04 297.538 152.124C297.608 152.243 297.676 152.364 297.742 152.485C299.432 155.573 300.327 158.861 300.26 161.743C300.192 164.66 299.148 166.818 297.319 167.82C297.29 167.839 297.255 167.849 297.22 167.849V167.849ZM297.316 152.462C293.888 154.522 293.814 161.081 297.178 167.224C297.214 167.291 297.25 167.357 297.287 167.422C298.912 166.447 299.836 164.437 299.899 161.734C299.964 158.915 299.086 155.692 297.425 152.658V152.658C297.389 152.592 297.353 152.527 297.316 152.462L297.316 152.462Z" fill="black"/>
<path d="M234.586 83.432L225.905 78.7201C224.875 78.1607 224.014 77.3334 223.415 76.3255C222.815 75.3176 222.499 74.1665 222.499 72.9937V67.3225C222.499 66.1465 223.762 65.4031 224.789 65.9742L234.151 71.177C235.01 71.6544 235.726 72.3527 236.224 73.1998C236.722 74.0469 236.985 75.0119 236.985 75.9947V82.0036C236.985 83.2356 235.668 84.0196 234.586 83.432H234.586Z" fill="#FF6124"/>
<path d="M235.361 83.8118C235.06 83.8112 234.764 83.7352 234.5 83.5907L225.819 78.8788C224.76 78.3044 223.875 77.4542 223.259 76.4183C222.643 75.3823 222.318 74.199 222.318 72.9935V67.3224C222.318 66.7053 222.636 66.1501 223.167 65.8372C223.699 65.5243 224.338 65.5164 224.877 65.8161L234.239 71.0189C235.126 71.5121 235.865 72.2335 236.379 73.1083C236.894 73.983 237.166 74.9795 237.166 75.9945V82.0034C237.167 82.3167 237.087 82.6249 236.932 82.8972C236.777 83.1695 236.554 83.3964 236.284 83.5553C236.005 83.7224 235.686 83.811 235.361 83.8116V83.8118ZM234.672 83.2731C234.892 83.3937 235.139 83.4545 235.389 83.4496C235.64 83.4446 235.884 83.374 236.099 83.2448C236.315 83.1177 236.494 82.9362 236.617 82.7184C236.741 82.5006 236.806 82.2542 236.805 82.0036V75.9947C236.804 75.0442 236.55 74.111 236.068 73.2917C235.586 72.4725 234.894 71.7969 234.064 71.335L224.702 66.1322C224.495 66.0158 224.261 65.9561 224.024 65.959C223.787 65.962 223.554 66.0275 223.351 66.149C223.145 66.2683 222.975 66.4396 222.858 66.6456C222.74 66.8517 222.678 67.0852 222.68 67.3225V72.9937C222.679 74.1341 222.987 75.2535 223.57 76.2336C224.153 77.2136 224.99 78.0178 225.992 78.5612L234.672 83.2731H234.672Z" fill="black"/>
</g>
<g clip-path="url(#clip3_49_991)">
<path d="M125.589 154.63L123.689 224.274L115.253 219.555L115.755 152.513L125.589 154.63Z" fill="white"/>
<path d="M123.689 224.454C123.658 224.454 123.628 224.446 123.601 224.431L115.166 219.712C115.137 219.696 115.114 219.673 115.098 219.645C115.082 219.617 115.073 219.586 115.073 219.553L115.575 152.512C115.575 152.485 115.581 152.458 115.593 152.434C115.604 152.41 115.621 152.389 115.642 152.372C115.663 152.355 115.688 152.344 115.714 152.337C115.74 152.331 115.767 152.331 115.793 152.337L125.627 154.454C125.669 154.463 125.705 154.486 125.731 154.519C125.757 154.552 125.771 154.593 125.769 154.635L123.869 224.279C123.868 224.326 123.848 224.37 123.815 224.403C123.781 224.436 123.736 224.454 123.689 224.454L123.689 224.454ZM115.434 219.449L123.517 223.971L125.405 154.775L115.933 152.736L115.434 219.449Z" fill="black"/>
<path d="M111.05 210.437H116.374L115.755 152.513L111.05 146.282V210.437Z" fill="white"/>
<path d="M116.374 210.618H111.05C111.003 210.618 110.957 210.599 110.923 210.565C110.889 210.531 110.87 210.485 110.87 210.437V146.282C110.87 146.244 110.882 146.207 110.904 146.176C110.926 146.146 110.957 146.123 110.993 146.111C111.029 146.099 111.068 146.098 111.104 146.109C111.14 146.12 111.171 146.143 111.194 146.173L115.899 152.404C115.922 152.435 115.935 152.472 115.935 152.511L116.554 210.436C116.555 210.459 116.55 210.483 116.541 210.505C116.532 210.527 116.519 210.547 116.502 210.564C116.486 210.581 116.466 210.595 116.444 210.604C116.422 210.613 116.398 210.618 116.374 210.618V210.618ZM111.23 210.257H116.192L115.576 152.574L111.231 146.819V210.257H111.23Z" fill="black"/>
<path d="M54.4488 234.302H111.05V146.282L55.7054 178.359L54.4488 234.302Z" fill="black"/>
<path d="M111.05 234.482H54.4488C54.4248 234.482 54.401 234.477 54.3789 234.468C54.3568 234.459 54.3367 234.445 54.3199 234.428C54.3031 234.411 54.29 234.39 54.2812 234.368C54.2724 234.346 54.2682 234.322 54.2688 234.298L55.5254 178.355C55.5261 178.324 55.5348 178.294 55.5505 178.267C55.5662 178.241 55.5885 178.219 55.6153 178.203L110.96 146.126C110.988 146.11 111.019 146.101 111.05 146.101C111.082 146.101 111.113 146.109 111.14 146.125C111.168 146.141 111.191 146.164 111.206 146.191C111.222 146.219 111.23 146.25 111.23 146.282V234.302C111.23 234.35 111.211 234.396 111.178 234.43C111.144 234.463 111.098 234.482 111.05 234.482L111.05 234.482ZM54.633 234.122H110.87V146.594L55.8832 178.465L54.633 234.122V234.122Z" fill="black"/>
<path d="M72.6699 257.576L128.119 225.338L125.589 154.63L70.3138 187.124L72.6699 257.576Z" fill="#FF6124"/>
<path d="M72.6699 257.757C72.6232 257.757 72.5783 257.738 72.5448 257.706C72.5112 257.673 72.4916 257.629 72.4901 257.582L70.134 187.13C70.1329 187.098 70.1405 187.066 70.1562 187.037C70.1718 187.009 70.1948 186.985 70.2227 186.969L125.498 154.475C125.525 154.459 125.556 154.45 125.587 154.45C125.618 154.45 125.649 154.457 125.676 154.472C125.703 154.487 125.726 154.509 125.743 154.536C125.759 154.562 125.768 154.593 125.769 154.624L128.299 225.332C128.3 225.364 128.292 225.397 128.276 225.425C128.261 225.454 128.237 225.478 128.209 225.494L72.7603 257.732C72.7328 257.748 72.7017 257.757 72.6699 257.757V257.757ZM70.4973 187.225L72.8397 257.269L127.935 225.237L125.42 154.939L70.4973 187.225V187.225Z" fill="black"/>
<path d="M52.7374 246.665L72.6699 257.576L70.3138 233.069H54.4766L52.7374 246.665Z" fill="#FF6124"/>
<path d="M72.6699 257.757C72.6397 257.757 72.61 257.749 72.5835 257.734L52.651 246.823C52.6192 246.806 52.5935 246.779 52.577 246.747C52.5606 246.715 52.5542 246.678 52.5588 246.642L54.298 233.046C54.3035 233.003 54.3247 232.963 54.3576 232.934C54.3905 232.905 54.4328 232.889 54.4766 232.889H70.3138C70.3586 232.889 70.4017 232.906 70.4348 232.936C70.4679 232.966 70.4887 233.007 70.493 233.052L72.8491 257.559C72.8516 257.584 72.8488 257.61 72.8409 257.633C72.833 257.657 72.8202 257.679 72.8033 257.698C72.7864 257.717 72.7658 257.731 72.7428 257.742C72.7198 257.752 72.6949 257.757 72.6698 257.757L72.6699 257.757ZM52.9317 246.566L72.4582 257.255L70.1502 233.249H54.635L52.9317 246.566Z" fill="black"/>
<path d="M65.5892 181.075L65.4239 236.64L72.6699 257.576L70.3138 187.124L65.5892 181.075Z" fill="#FF6124"/>
<path d="M72.6697 257.757C72.6323 257.757 72.5959 257.745 72.5654 257.723C72.535 257.702 72.512 257.671 72.4998 257.636L65.2537 236.699C65.2471 236.68 65.2438 236.66 65.2438 236.64L65.4093 181.074C65.4093 181.037 65.421 181 65.4428 180.97C65.4646 180.939 65.4953 180.916 65.5308 180.904C65.5663 180.892 65.6047 180.891 65.6406 180.902C65.6765 180.912 65.7082 180.934 65.7312 180.964L70.4557 187.013C70.4791 187.043 70.4926 187.08 70.4938 187.118L72.8499 257.57C72.8508 257.594 72.8467 257.619 72.838 257.641C72.8293 257.664 72.8162 257.684 72.7994 257.702C72.7826 257.719 72.7625 257.733 72.7402 257.742C72.718 257.752 72.6941 257.757 72.6699 257.757H72.6697ZM65.6039 236.61L72.4501 256.391L70.1357 187.189L65.7677 181.596L65.6039 236.61V236.61Z" fill="black"/>
<path d="M52.7374 246.665L65.4239 236.72L65.5892 181.075L55.7055 178.359L52.7374 246.665Z" fill="#FF6124"/>
<path d="M52.7374 246.845C52.7131 246.845 52.689 246.84 52.6667 246.831C52.6443 246.821 52.6241 246.807 52.6073 246.79C52.5905 246.772 52.5774 246.751 52.5689 246.729C52.5603 246.706 52.5565 246.681 52.5575 246.657L55.5256 178.352C55.5268 178.324 55.534 178.298 55.5468 178.274C55.5596 178.25 55.5776 178.23 55.5994 178.214C55.6213 178.198 55.6465 178.187 55.6731 178.182C55.6997 178.177 55.7271 178.178 55.7532 178.186L65.6371 180.901C65.6752 180.911 65.7088 180.934 65.7327 180.966C65.7566 180.997 65.7695 181.036 65.7694 181.075L65.6039 236.72C65.6039 236.747 65.5977 236.774 65.5857 236.799C65.5737 236.823 65.5563 236.844 65.5348 236.861L52.8483 246.807C52.8166 246.832 52.7775 246.845 52.7372 246.845H52.7374ZM55.8754 178.593L52.9342 246.282L65.244 236.632L65.4088 181.212L55.8754 178.593Z" fill="black"/>
<path d="M77.0736 169.973C76.956 169.973 76.8432 169.927 76.7591 169.845C76.6751 169.762 76.6265 169.65 76.6239 169.533L76.5965 168.409C76.5212 165.374 76.4435 162.236 76.6858 159.186C77.01 155.108 77.6781 150.477 80.1752 147.052C83.3575 142.527 89.241 138.813 94.32 140.48C97.0196 141.366 98.6763 144.188 98.7515 148.028C98.7557 148.128 98.8369 153.615 98.8234 156.924C98.8229 157.043 98.7753 157.158 98.6909 157.242C98.6065 157.326 98.4923 157.373 98.3733 157.373H98.3715C98.3124 157.373 98.2539 157.361 98.1994 157.338C98.1449 157.315 98.0954 157.282 98.0537 157.24C98.0121 157.198 97.9792 157.148 97.9568 157.093C97.9344 157.038 97.923 156.98 97.9232 156.921C97.9367 153.614 97.8559 148.188 97.8517 148.053C97.8263 146.757 97.4767 142.465 94.0395 141.336C89.4254 139.821 83.8296 143.421 80.9067 147.577C78.5373 150.827 77.8972 155.305 77.5831 159.258C77.3444 162.261 77.4216 165.375 77.4963 168.386L77.5237 169.512C77.5264 169.631 77.4817 169.747 77.3993 169.833C77.3169 169.92 77.2035 169.97 77.0842 169.973H77.0736V169.973Z" fill="#FF6124"/>
<path d="M85.8155 184.012C85.698 184.012 85.5852 183.966 85.5011 183.884C85.4171 183.802 85.3685 183.69 85.3658 183.572C85.3487 182.839 85.3175 181.844 85.2815 180.698C85.1505 176.515 84.9523 170.194 85.1667 167.498C85.4909 163.42 86.159 158.789 88.6563 155.364C91.8384 150.839 97.7217 147.125 102.801 148.792C105.501 149.678 107.157 152.5 107.233 156.34C107.233 156.361 107.32 167.569 107.306 170.997C107.305 171.116 107.258 171.23 107.173 171.314C107.089 171.398 106.975 171.445 106.856 171.445H106.854C106.795 171.445 106.736 171.433 106.682 171.41C106.627 171.388 106.578 171.354 106.536 171.312C106.495 171.27 106.462 171.22 106.439 171.166C106.417 171.111 106.405 171.052 106.406 170.993C106.419 167.73 106.34 156.691 106.333 156.361C106.307 155.069 105.958 150.777 102.52 149.648C97.9065 148.133 92.3104 151.733 89.3878 155.889C87.0183 159.139 86.3783 163.617 86.064 167.57C85.8537 170.216 86.0508 176.507 86.1813 180.67C86.2174 181.819 86.2487 182.817 86.2658 183.551C86.2685 183.671 86.2238 183.786 86.1414 183.873C86.059 183.959 85.9457 184.009 85.8263 184.012H85.8157H85.8155Z" fill="#FF6124"/>
</g>
<g clip-path="url(#clip4_49_991)">
<path d="M146.049 182.609L144.444 241.396L137.324 237.412L137.747 180.822L146.049 182.609Z" fill="white"/>
<path d="M144.444 241.576C144.413 241.576 144.383 241.568 144.356 241.553L137.236 237.57C137.208 237.554 137.184 237.531 137.168 237.503C137.152 237.475 137.143 237.443 137.143 237.411L137.567 180.82C137.567 180.793 137.573 180.767 137.585 180.743C137.596 180.719 137.613 180.697 137.634 180.681C137.655 180.664 137.679 180.652 137.706 180.646C137.732 180.64 137.759 180.639 137.785 180.645L146.086 182.432C146.128 182.441 146.164 182.464 146.19 182.497C146.216 182.53 146.23 182.571 146.229 182.614L144.624 241.401C144.623 241.448 144.604 241.492 144.57 241.525C144.536 241.558 144.491 241.576 144.444 241.576V241.576ZM137.505 237.307L144.272 241.093L145.864 182.754L137.926 181.045L137.505 237.307Z" fill="black"/>
<path d="M133.776 229.716H138.27L137.747 180.822L133.776 175.561V229.716Z" fill="white"/>
<path d="M138.27 229.897H133.776C133.728 229.897 133.682 229.878 133.648 229.844C133.615 229.81 133.596 229.764 133.596 229.716V175.562C133.596 175.484 133.645 175.415 133.719 175.391C133.792 175.366 133.873 175.391 133.92 175.453L137.891 180.713C137.914 180.744 137.927 180.781 137.927 180.82L138.45 229.714C138.45 229.738 138.446 229.762 138.437 229.784C138.428 229.806 138.415 229.826 138.398 229.843C138.381 229.86 138.361 229.874 138.339 229.883C138.317 229.892 138.294 229.897 138.27 229.897V229.897ZM133.956 229.536H138.088L137.567 180.883L133.956 176.1V229.536Z" fill="black"/>
<path d="M85.9973 249.861H133.776V175.561L87.058 202.639L85.9973 249.861Z" fill="black"/>
<path d="M133.776 250.041H85.9972C85.9732 250.041 85.9494 250.036 85.9272 250.027C85.905 250.018 85.885 250.004 85.8682 249.987C85.8513 249.97 85.8382 249.949 85.8294 249.927C85.8206 249.904 85.8163 249.88 85.817 249.856L86.8777 202.635C86.8784 202.604 86.8871 202.574 86.9028 202.547C86.9186 202.52 86.9409 202.498 86.9677 202.483L133.686 175.405C133.713 175.389 133.744 175.381 133.776 175.381C133.807 175.381 133.839 175.389 133.866 175.405C133.893 175.421 133.916 175.444 133.932 175.471C133.948 175.499 133.956 175.53 133.956 175.562V249.861C133.956 249.908 133.937 249.954 133.903 249.988C133.869 250.022 133.824 250.041 133.776 250.041H133.776ZM86.1817 249.68H133.596V175.875L87.236 202.744L86.1817 249.68Z" fill="black"/>
<path d="M101.378 269.507L148.184 242.294L146.048 182.609L99.3893 210.037L101.378 269.507Z" fill="#ADC4CB"/>
<path d="M101.378 269.687C101.331 269.687 101.286 269.669 101.253 269.636C101.219 269.604 101.2 269.56 101.198 269.513L99.2091 210.043C99.2081 210.011 99.2157 209.979 99.2314 209.95C99.247 209.922 99.27 209.898 99.298 209.882L145.957 182.453C145.984 182.437 146.015 182.429 146.046 182.428C146.077 182.428 146.108 182.435 146.135 182.45C146.163 182.465 146.186 182.487 146.202 182.514C146.219 182.541 146.228 182.571 146.229 182.602L148.364 242.288C148.365 242.32 148.357 242.353 148.342 242.381C148.326 242.41 148.303 242.434 148.274 242.45L101.469 269.663C101.441 269.679 101.41 269.687 101.378 269.687ZM99.573 210.138L101.548 269.199L148 242.193L145.879 182.918L99.573 210.138Z" fill="black"/>
<path d="M84.5526 260.296L101.378 269.507L99.3893 248.82H86.0207L84.5526 260.296Z" fill="#ADC4CB"/>
<path d="M101.378 269.687C101.348 269.687 101.318 269.68 101.292 269.665L84.4661 260.455C84.4343 260.438 84.4085 260.411 84.392 260.379C84.3756 260.346 84.3692 260.31 84.3738 260.274L85.8418 248.797C85.8474 248.754 85.8686 248.714 85.9015 248.685C85.9345 248.656 85.9768 248.64 86.0207 248.64H99.3893C99.4821 248.64 99.5598 248.71 99.5688 248.803L101.558 269.49C101.56 269.515 101.557 269.54 101.549 269.564C101.541 269.588 101.529 269.61 101.512 269.628C101.495 269.647 101.474 269.662 101.451 269.672C101.428 269.682 101.403 269.687 101.378 269.687V269.687ZM84.747 260.197L101.166 269.185L99.2254 249H86.1792L84.747 260.197Z" fill="black"/>
<path d="M95.4012 204.931L95.2615 251.834L101.378 269.507L99.3893 210.037L95.4012 204.931Z" fill="#ADC4CB"/>
<path d="M101.378 269.687C101.341 269.687 101.304 269.676 101.273 269.654C101.243 269.632 101.22 269.601 101.208 269.566L95.0911 251.893C95.0844 251.874 95.0811 251.854 95.0812 251.834L95.2208 204.93C95.2207 204.893 95.2325 204.856 95.2543 204.826C95.2761 204.795 95.3069 204.772 95.3424 204.76C95.378 204.748 95.4164 204.747 95.4524 204.758C95.4883 204.768 95.5201 204.79 95.5431 204.82L99.5312 209.926C99.5546 209.956 99.5681 209.993 99.5694 210.031L101.558 269.501C101.559 269.525 101.555 269.549 101.546 269.572C101.538 269.594 101.525 269.615 101.508 269.632C101.491 269.65 101.471 269.664 101.448 269.673C101.426 269.682 101.402 269.687 101.378 269.687V269.687ZM95.4418 251.804L101.158 268.32L99.211 210.102L95.5799 205.453L95.442 251.804H95.4418Z" fill="black"/>
<path d="M84.5526 260.296L95.2615 251.901L95.4012 204.931L87.058 202.639L84.5526 260.296Z" fill="#ADC4CB"/>
<path d="M84.5526 260.477C84.5283 260.477 84.5042 260.472 84.4817 260.462C84.4593 260.453 84.4391 260.439 84.4223 260.421C84.4054 260.404 84.3923 260.383 84.3837 260.36C84.3751 260.337 84.3713 260.313 84.3723 260.289L86.8779 202.631C86.8791 202.604 86.8863 202.578 86.8992 202.554C86.912 202.53 86.93 202.509 86.9519 202.493C86.9738 202.477 86.999 202.466 87.0256 202.461C87.0523 202.457 87.0797 202.458 87.1058 202.465L95.449 204.757C95.5276 204.779 95.5818 204.85 95.5815 204.932L95.4419 251.902C95.4419 251.929 95.4357 251.956 95.4237 251.981C95.4118 252.005 95.3944 252.027 95.3729 252.043L84.6639 260.438C84.6321 260.463 84.593 260.477 84.5526 260.477ZM87.2282 202.873L84.7497 259.913L95.0816 251.813L95.2206 205.069L87.2284 202.873L87.2282 202.873Z" fill="black"/>
<path d="M101.507 198.035C101.389 198.035 101.276 197.989 101.192 197.906C101.108 197.824 101.059 197.712 101.056 197.594C101.043 197.052 101.029 196.51 101.014 195.968C100.943 193.392 100.892 191.531 101.118 188.678C101.443 184.594 102.112 179.956 104.613 176.527C107.799 171.996 113.691 168.276 118.777 169.946C121.481 170.833 123.14 173.659 123.215 177.504C123.219 177.602 123.3 181.992 123.287 185.329C123.286 185.449 123.238 185.563 123.154 185.647C123.069 185.732 122.955 185.779 122.836 185.779H122.834C122.775 185.779 122.716 185.767 122.662 185.744C122.607 185.721 122.557 185.688 122.516 185.645C122.474 185.603 122.441 185.554 122.419 185.499C122.396 185.444 122.385 185.385 122.385 185.326C122.399 182.031 122.318 177.671 122.314 177.53C122.288 176.231 121.938 171.933 118.496 170.803C113.875 169.286 108.272 172.891 105.345 177.053C102.973 180.307 102.332 184.791 102.017 188.749C101.794 191.555 101.845 193.396 101.915 195.943C101.929 196.456 101.944 196.994 101.957 197.573C101.96 197.693 101.915 197.809 101.833 197.895C101.75 197.982 101.637 198.032 101.517 198.035H101.507V198.035Z" fill="#ADC4CB"/>
<path d="M110.261 208.664C110.143 208.664 110.03 208.618 109.946 208.536C109.862 208.453 109.813 208.341 109.81 208.224C109.793 207.49 109.762 206.493 109.726 205.346C109.595 201.157 109.396 194.827 109.611 192.128C109.936 188.044 110.605 183.406 113.105 179.977C116.292 175.446 122.183 171.726 127.269 173.396C129.973 174.283 131.632 177.108 131.707 180.954C131.708 180.976 131.795 192.207 131.781 195.631C131.78 195.75 131.733 195.865 131.648 195.949C131.564 196.033 131.449 196.08 131.33 196.08H131.328C131.269 196.08 131.21 196.068 131.156 196.045C131.101 196.022 131.052 195.989 131.01 195.947C130.968 195.905 130.935 195.855 130.913 195.8C130.89 195.745 130.879 195.687 130.879 195.627C130.893 192.368 130.813 181.307 130.806 180.975C130.781 179.681 130.431 175.383 126.989 174.253C122.368 172.737 116.764 176.341 113.838 180.503C111.465 183.757 110.824 188.241 110.509 192.199C110.299 194.849 110.496 201.149 110.627 205.318C110.663 206.468 110.694 207.467 110.711 208.203C110.714 208.322 110.669 208.438 110.587 208.525C110.504 208.611 110.391 208.662 110.271 208.664H110.261H110.261Z" fill="#ADC4CB"/>
</g>
<g clip-path="url(#clip5_49_991)">
<path d="M32.7397 142.473C33.459 141.041 34.5863 139.853 35.9798 139.058L78.0078 115.056C78.7659 114.623 79.6166 114.697 80.2631 115.102L77.1354 112.775C76.4218 112.245 75.568 111.935 74.6799 111.885C73.7918 111.834 72.9084 112.045 72.139 112.491L31.2278 136.243C29.8322 136.901 28.8899 138.115 28.2929 139.527L32.7397 142.473Z" fill="white"/>
<path d="M32.7397 142.654C32.7042 142.654 32.6694 142.643 32.6398 142.624L28.1931 139.677C28.158 139.654 28.1322 139.619 28.12 139.579C28.1079 139.539 28.1102 139.495 28.1266 139.457C28.8097 137.84 29.8272 136.704 31.1508 136.08L72.0484 112.335C72.8481 111.871 73.7668 111.651 74.6903 111.704C75.6138 111.756 76.5015 112.079 77.2433 112.631L80.3711 114.957C80.4088 114.985 80.4342 115.026 80.442 115.072C80.4498 115.119 80.4394 115.166 80.413 115.204C80.3866 115.243 80.3463 115.27 80.3005 115.279C80.2546 115.289 80.2069 115.28 80.1674 115.255C79.5271 114.854 78.7533 114.838 78.0976 115.212L36.0695 139.215C34.7061 139.991 33.6035 141.153 32.9012 142.554C32.8862 142.584 32.8631 142.609 32.8346 142.627C32.8061 142.645 32.7732 142.654 32.7397 142.654V142.654ZM28.5187 139.46L32.6718 142.212C33.409 140.826 34.5252 139.678 35.8903 138.902L77.9181 114.899C78.3426 114.657 78.8089 114.553 79.2686 114.587L77.0275 112.92C76.3424 112.41 75.5225 112.112 74.6696 112.064C73.8167 112.015 72.9683 112.218 72.2298 112.647L31.3186 136.399C30.1021 136.974 29.1648 138.001 28.5187 139.46V139.46Z" fill="black"/>
<path d="M28.2929 139.527C27.6541 141.038 27.411 142.777 27.4319 144.308L27.9021 178.056C27.9176 179.048 28.462 179.851 29.217 180.284C29.8606 180.648 32.8831 181.906 33.8328 182.298C32.9882 181.897 32.3602 181.05 32.3447 179.984L31.8743 146.236C31.8563 144.931 32.1531 143.64 32.7395 142.473L28.2927 139.527H28.2929Z" fill="#ADC4CB"/>
<path d="M33.8326 182.479C33.8089 182.479 33.7855 182.474 33.7636 182.465C32.8426 182.085 29.7867 180.814 29.1277 180.441C28.2624 179.945 27.737 179.055 27.7214 178.059L27.2513 144.31C27.2276 142.572 27.5384 140.848 28.1266 139.457C28.1369 139.432 28.1526 139.41 28.1723 139.393C28.1921 139.375 28.2155 139.362 28.2409 139.354C28.2664 139.347 28.2932 139.345 28.3194 139.348C28.3457 139.352 28.3708 139.362 28.393 139.376L32.8397 142.323C32.8765 142.347 32.9031 142.384 32.9144 142.427C32.9258 142.47 32.9211 142.515 32.9013 142.554C32.3292 143.696 32.0391 144.957 32.0553 146.234L32.5256 179.982C32.539 180.91 33.0698 181.736 33.9106 182.136C33.9477 182.153 33.9776 182.183 33.9955 182.22C34.0134 182.256 34.0182 182.298 34.0092 182.338C34.0002 182.378 33.9778 182.414 33.9458 182.439C33.9137 182.465 33.874 182.479 33.833 182.479H33.8326ZM28.3769 139.799C27.8612 141.109 27.5905 142.699 27.6125 144.305L28.0827 178.053C28.0962 178.92 28.5537 179.696 29.3067 180.127C29.7131 180.358 31.1988 181.002 32.7425 181.649C32.374 181.173 32.1708 180.589 32.1638 179.987L31.6935 146.239C31.6774 144.959 31.9558 143.692 32.5074 142.536L28.3765 139.799H28.3769Z" fill="black"/>
<path d="M60.6459 165.275L66.4108 169.709L71.112 172.078L63.8929 163.487L60.6459 165.275Z" fill="#ADC4CB"/>
<path d="M71.1118 172.258C71.0844 172.258 71.0566 172.252 71.0305 172.239L66.3293 169.87C66.3191 169.865 66.3094 169.859 66.3004 169.852L60.5355 165.418C60.5117 165.4 60.4929 165.376 60.4807 165.349C60.4685 165.322 60.4633 165.292 60.4655 165.262C60.4678 165.232 60.4775 165.203 60.4937 165.178C60.5099 165.153 60.5322 165.132 60.5584 165.117L63.8056 163.329C63.8423 163.309 63.8848 163.302 63.926 163.31C63.9671 163.318 64.0043 163.339 64.0312 163.372L71.2504 171.962C71.2725 171.988 71.2866 172.02 71.2911 172.054C71.2956 172.089 71.2903 172.123 71.2757 172.154C71.2612 172.185 71.2381 172.212 71.2091 172.23C71.1801 172.249 71.1464 172.258 71.112 172.258H71.1118ZM66.5074 169.556L70.4085 171.521L63.8501 163.717L60.9744 165.3L66.5074 169.556V169.556Z" fill="black"/>
<path d="M78.0084 115.057L35.9798 139.058C34.7158 139.779 33.6682 140.825 32.9462 142.088C32.2242 143.35 31.8541 144.783 31.8745 146.236L32.3461 179.984C32.3739 181.977 34.5397 183.202 36.2654 182.202L65.1014 165.483L71.1149 171.996L71.1844 161.957L76.4107 158.926C77.9107 158.057 79.1532 156.806 80.0119 155.301C80.8705 153.796 81.3146 152.09 81.2989 150.358L81.2993 116.964C81.2993 115.277 79.4745 114.22 78.0084 115.057V115.057Z" fill="white"/>
<path d="M34.9557 182.739C34.4837 182.739 34.0116 182.617 33.5801 182.372C32.7084 181.879 32.1795 180.987 32.1655 179.987L31.6938 146.239C31.6733 144.753 32.0517 143.289 32.7897 141.998C33.5277 140.708 34.5983 139.638 35.8903 138.901L77.9188 114.9C78.6639 114.475 79.5522 114.478 80.2945 114.908C81.0369 115.338 81.4801 116.107 81.4801 116.964L81.4798 150.358C81.5123 153.94 79.6047 157.284 76.5016 159.083L71.3645 162.061L71.2957 171.997C71.2955 172.034 71.2843 172.069 71.2637 172.099C71.2431 172.128 71.214 172.151 71.1802 172.164C71.1465 172.177 71.1095 172.18 71.0742 172.172C71.0389 172.164 71.0069 172.145 70.9823 172.118L65.0671 165.712L36.3561 182.358C35.9312 182.606 35.448 182.737 34.9557 182.738V182.739ZM78.0084 115.057L78.098 115.214L36.0696 139.215C34.8337 139.92 33.8095 140.943 33.1036 142.177C32.3976 143.412 32.0356 144.812 32.0553 146.234L32.5269 179.982C32.539 180.853 32.9994 181.629 33.7582 182.059C34.5172 182.488 35.4205 182.483 36.1747 182.046L65.0108 165.327C65.0463 165.307 65.0878 165.299 65.1284 165.305C65.1691 165.311 65.2064 165.331 65.2342 165.361L70.9374 171.538L71.0038 161.955C71.004 161.924 71.0125 161.893 71.0282 161.866C71.044 161.839 71.0666 161.816 71.0938 161.801L76.3203 158.77C79.3112 157.036 81.1498 153.813 81.1183 150.36L81.1187 116.964C81.1187 116.237 80.7428 115.585 80.113 115.22C79.4832 114.855 78.73 114.853 78.098 115.214L78.0084 115.057V115.057Z" fill="black"/>
</g>
<g clip-path="url(#clip6_49_991)">
<path d="M70.8158 148.95C70.8066 151.947 70.4251 154.576 68.6691 157.083C67.3447 158.974 64.4981 161.682 61.9677 161.084C58.825 160.341 59.459 154.875 60.075 152.529C60.703 150.136 62.112 147.872 64.0512 146.338C67.2411 143.815 70.8476 144.268 70.8158 148.95V148.95Z" fill="#FF6124"/>
<path d="M62.7042 161.349C62.4441 161.349 62.1845 161.321 61.9266 161.26C61.1663 161.08 60.5654 160.628 60.1406 159.917C58.9393 157.905 59.4249 154.297 59.9013 152.483C60.5523 150.003 62.0243 147.712 63.94 146.196C65.8016 144.724 67.748 144.256 69.1476 144.946C70 145.366 71.0125 146.403 70.9952 148.951C70.9872 151.624 70.7173 154.472 68.8158 157.187C67.7427 158.72 65.2084 161.349 62.7042 161.349V161.349ZM67.7531 145.001C66.6635 145.001 65.3814 145.516 64.162 146.48C62.3063 147.948 60.88 150.17 60.2485 152.575C59.8183 154.214 59.3065 157.818 60.4485 159.731C60.8214 160.355 61.3465 160.752 62.0087 160.908C64.5617 161.511 67.3857 158.602 68.5221 156.979C70.3665 154.346 70.6281 151.564 70.636 148.95V148.949C70.6487 147.08 70.0793 145.808 68.9895 145.271C68.6225 145.09 68.2042 145.001 67.7531 145.001V145.001Z" fill="black"/>
<path d="M67.6472 152.277C67.6498 151.17 68.0182 148.976 66.4275 148.807C65.1359 148.67 63.8232 150.347 63.3617 151.355C62.5592 153.107 62.2036 158.329 65.3635 156.515C66.8187 155.679 67.646 153.923 67.6472 152.277V152.277Z" fill="white"/>
<path d="M64.2008 157.075C63.8696 157.075 63.5823 156.964 63.3414 156.742C62.2489 155.735 62.5957 152.596 63.1986 151.279C63.6254 150.347 64.9823 148.472 66.4464 148.628C67.974 148.79 67.8957 150.567 67.844 151.743C67.8348 151.921 67.8291 152.099 67.8271 152.277C67.8258 154.091 66.8718 155.857 65.4528 156.671C64.9839 156.941 64.5657 157.075 64.2008 157.075V157.075ZM66.2762 148.98C65.1655 148.98 63.9905 150.414 63.5248 151.43C62.989 152.601 62.6385 155.604 63.5841 156.476C63.9621 156.824 64.5308 156.784 65.2746 156.358C66.5852 155.605 67.4666 153.965 67.4676 152.277C67.468 152.113 67.4761 151.927 67.4849 151.727C67.5479 150.297 67.5104 149.104 66.4086 148.987C66.3647 148.983 66.3205 148.98 66.2762 148.98V148.98Z" fill="black"/>
<path d="M56.5223 139.661C56.5235 142.686 56.1484 145.34 54.3732 147.871C53.0316 149.783 50.1507 152.495 47.5901 151.887C44.4214 151.135 45.0227 145.649 45.629 143.28C46.2473 140.863 47.6636 138.573 49.6168 137.023C52.847 134.461 56.5384 134.906 56.5223 139.661V139.661Z" fill="#FF6124"/>
<path d="M48.348 152.155C48.0807 152.155 47.8139 152.126 47.5488 152.063C46.7797 151.88 46.1707 151.423 45.7383 150.703C44.5236 148.681 44.9885 145.057 45.4547 143.235C46.0953 140.731 47.5716 138.415 49.5052 136.881C51.3672 135.404 53.3993 134.916 54.8088 135.607C55.677 136.032 56.7101 137.081 56.7015 139.661C56.7026 142.362 56.439 145.238 54.5196 147.974C53.439 149.515 50.8852 152.155 48.3476 152.155L48.348 152.155ZM53.3873 135.658C52.2741 135.658 50.9675 136.182 49.728 137.165C47.8549 138.651 46.4242 140.896 45.8028 143.325C45.3816 144.971 44.8904 148.593 46.0459 150.517C46.4264 151.15 46.9597 151.552 47.6312 151.711C50.2272 152.327 53.0803 149.4 54.2262 147.766C56.0878 145.112 56.3435 142.302 56.3424 139.661V139.66C56.3489 137.766 55.7641 136.477 54.6516 135.932C54.2756 135.747 53.8479 135.658 53.3871 135.658L53.3873 135.658Z" fill="black"/>
<path d="M53.3248 141.407C53.327 143.247 53.351 145.001 52.0422 146.447C51.3534 147.208 49.9278 148.254 48.9608 147.381C48.0974 146.601 48.405 144.443 48.5713 143.42C48.8003 142.01 49.6242 140.59 50.9036 139.899C52.3016 139.143 53.3753 139.758 53.3248 141.407V141.407Z" fill="white"/>
<path d="M49.8142 147.894C49.4727 147.894 49.1395 147.785 48.8406 147.515C47.9675 146.727 48.1675 144.784 48.3938 143.391C48.6511 141.808 49.5802 140.409 50.8183 139.739C51.5645 139.336 52.2547 139.288 52.762 139.604C53.2661 139.918 53.5296 140.559 53.5041 141.409V141.497C53.5068 143.347 53.5091 145.095 52.1746 146.569C51.6459 147.153 50.7026 147.894 49.8139 147.894H49.8142ZM52.003 139.759C51.701 139.759 51.3559 139.859 50.9886 140.058C49.8466 140.675 48.9882 141.975 48.7486 143.449C48.6261 144.204 48.253 146.499 49.0808 147.246C49.9475 148.029 51.2666 147.036 51.9094 146.326C53.15 144.955 53.1479 143.275 53.1453 141.497V141.401C53.1673 140.684 52.9641 140.154 52.5734 139.911C52.4101 139.809 52.2175 139.759 52.0032 139.759H52.003Z" fill="black"/>
<path d="M66.2022 132.341L63.7149 131.762L49.839 164.851L49.8453 164.855L52.3371 165.385L66.2087 132.345L66.2022 132.341Z" fill="#FF6124"/>
<path d="M52.3373 165.565C52.3248 165.565 52.3123 165.564 52.3001 165.561L49.8083 165.031C49.7891 165.027 49.7707 165.02 49.7538 165.01C49.6766 164.964 49.6387 164.864 49.6735 164.781L63.5493 131.692C63.5658 131.652 63.5954 131.62 63.6331 131.601C63.6708 131.582 63.7141 131.576 63.7553 131.586L66.2426 132.165C66.2601 132.169 66.2768 132.176 66.2922 132.185L66.2985 132.188C66.3363 132.211 66.3649 132.246 66.3788 132.287C66.3927 132.329 66.391 132.375 66.3739 132.415L52.5025 165.455C52.4888 165.488 52.4658 165.516 52.4364 165.535C52.4069 165.555 52.3724 165.565 52.3371 165.565H52.3373ZM50.0882 164.722L52.2293 165.177L65.9608 132.47L63.8216 131.972L50.0882 164.722Z" fill="black"/>
</g>
<g clip-path="url(#clip7_49_991)">
<path d="M302.935 231.513L241.565 196.746L244.184 194.993L297.822 221.516L302.935 231.513Z" fill="black"/>
<path d="M302.935 231.693C302.904 231.693 302.874 231.685 302.846 231.67L241.476 196.903C241.449 196.888 241.426 196.866 241.41 196.84C241.394 196.814 241.385 196.784 241.384 196.753C241.383 196.722 241.39 196.692 241.404 196.664C241.418 196.637 241.439 196.613 241.464 196.596L244.084 194.843C244.11 194.825 244.141 194.815 244.172 194.813C244.204 194.811 244.236 194.817 244.264 194.831L297.902 221.355C297.937 221.372 297.965 221.4 297.983 221.434L303.097 231.431C303.111 231.458 303.118 231.489 303.116 231.52C303.115 231.551 303.106 231.581 303.09 231.607C303.074 231.633 303.051 231.655 303.024 231.67C302.997 231.685 302.967 231.693 302.936 231.693H302.935ZM241.909 196.734L302.5 231.059L297.688 221.652L244.198 195.201L241.909 196.733V196.734Z" fill="black"/>
<path d="M324.973 214.205C324.973 214.205 325.149 225.492 319.106 230.5C314.644 234.199 303.029 234.673 300.329 228.377C300.281 228.265 300.232 228.153 300.181 228.041C298.887 225.204 296.645 222.905 293.885 221.45L240.619 193.382C240.619 193.382 245.481 195.691 252.194 194.767C258.586 193.888 259.527 176.592 259.527 176.592L324.973 214.205V214.205Z" fill="white"/>
<path d="M309.988 233.387C308.697 233.387 307.42 233.252 306.235 232.966C304.131 232.458 301.37 231.263 300.164 228.448C300.116 228.337 300.067 228.227 300.017 228.116C298.766 225.374 296.558 223.064 293.8 221.61L240.535 193.542C240.493 193.52 240.462 193.482 240.448 193.437C240.433 193.392 240.437 193.343 240.458 193.301C240.479 193.259 240.516 193.227 240.561 193.211C240.605 193.196 240.654 193.199 240.697 193.219C240.745 193.242 245.592 195.493 252.17 194.588C258.341 193.739 259.338 176.754 259.347 176.582C259.349 176.552 259.358 176.522 259.375 176.496C259.391 176.47 259.414 176.448 259.441 176.433C259.468 176.419 259.499 176.411 259.53 176.412C259.56 176.412 259.591 176.42 259.617 176.435L325.063 214.048C325.09 214.064 325.113 214.086 325.128 214.113C325.144 214.14 325.153 214.171 325.153 214.202C325.155 214.316 325.261 225.634 319.222 230.639C317.128 232.374 313.51 233.387 309.987 233.387L309.988 233.387ZM242.806 194.33L293.969 221.291C296.797 222.781 299.062 225.152 300.346 227.966C300.396 228.078 300.446 228.191 300.496 228.306C301.644 230.983 304.296 232.126 306.319 232.614C310.643 233.657 316.209 232.667 318.991 230.361C324.593 225.718 324.788 215.446 324.792 214.31L259.69 176.894C259.532 179.257 258.298 194.11 252.219 194.946C248.243 195.493 244.885 194.903 242.806 194.33V194.33Z" fill="black"/>
<path d="M295.414 222.379C295.414 222.379 288.96 217.621 281.866 222.084C271.65 228.51 279.78 253.294 274.881 265.424C272.587 271.107 269.725 274.671 266.568 275.533C258.075 277.853 255.518 268.808 255.518 268.808L192.584 230.51C192.584 230.51 199.064 229.374 203.602 224.331C206.25 222.178 208.917 219.217 210.321 215.199C213.109 207.224 210.828 202.934 213.011 194.384C214.1 190.119 216.261 187.296 218.538 185.434C222.074 182.54 227.081 182.262 231.024 184.569L295.414 222.379H295.414Z" fill="white"/>
<path d="M263.914 276.091C260.961 276.091 258.961 274.596 257.721 273.159C256.159 271.349 255.488 269.329 255.364 268.927L192.49 230.664C192.459 230.645 192.434 230.616 192.419 230.583C192.404 230.549 192.4 230.512 192.407 230.476C192.414 230.44 192.431 230.407 192.457 230.381C192.483 230.355 192.517 230.338 192.553 230.332C192.617 230.32 199.026 229.146 203.468 224.21C203.475 224.204 203.481 224.197 203.489 224.191C206.731 221.554 208.973 218.508 210.151 215.139C211.626 210.92 211.672 207.748 211.722 204.39C211.765 201.424 211.81 198.356 212.836 194.339C213.794 190.587 215.674 187.544 218.424 185.294C221.964 182.397 227.064 182.043 231.116 184.413L294.266 221.496C295.051 221.895 295.504 222.221 295.521 222.234C295.558 222.261 295.584 222.302 295.592 222.348C295.6 222.393 295.59 222.44 295.565 222.479C295.539 222.517 295.5 222.545 295.455 222.555C295.41 222.566 295.362 222.558 295.322 222.535L294.079 221.805C291.893 220.698 287.072 219.022 281.962 222.236C276.078 225.938 276.379 236.122 276.671 245.97C276.881 253.073 277.098 260.417 275.049 265.492C272.7 271.309 269.784 274.842 266.616 275.707C265.638 275.974 264.739 276.091 263.915 276.091L263.914 276.091ZM193.065 230.591L255.612 268.654C255.651 268.678 255.679 268.715 255.692 268.759C255.698 268.782 256.344 271.014 258.003 272.932C260.21 275.484 263.075 276.3 266.52 275.359C269.575 274.524 272.408 271.066 274.714 265.357C276.735 260.352 276.518 253.046 276.309 245.981C276.015 236.031 275.71 225.742 281.769 221.931C285.667 219.479 289.401 219.789 291.991 220.58L230.933 184.725C227.012 182.431 222.076 182.772 218.653 185.573C215.964 187.773 214.125 190.752 213.187 194.428C212.171 198.404 212.127 201.45 212.083 204.395C212.033 207.783 211.986 210.984 210.492 215.258C209.293 218.688 207.017 221.785 203.728 224.463C199.89 228.72 194.621 230.224 193.065 230.591V230.591Z" fill="black"/>
<path d="M261.047 275.381C261.047 275.381 250.494 272.587 263.363 254.652C269.243 246.457 270.095 240.711 270.141 236.586C270.184 232.792 268.378 229.176 264.722 228.154C261.067 227.132 220.204 203.235 220.204 203.235L209.365 242.546L260.113 274.98L261.047 275.381H261.047Z" fill="black"/>
<path d="M261.047 275.561C261.032 275.561 261.016 275.559 261.001 275.555C260.941 275.54 260.151 275.321 259.27 274.656L209.268 242.698C209.235 242.678 209.21 242.647 209.197 242.611C209.183 242.575 209.181 242.535 209.191 242.498L220.03 203.187C220.038 203.16 220.051 203.136 220.069 203.115C220.087 203.095 220.11 203.079 220.135 203.068C220.16 203.058 220.188 203.053 220.215 203.054C220.242 203.056 220.269 203.064 220.293 203.077L264.792 227.986C268.201 228.95 270.37 232.324 270.322 236.588C270.276 240.692 269.46 246.465 263.51 254.757C256.882 263.994 256.618 269.081 257.564 271.723C258.04 273.053 258.864 273.906 259.596 274.435L260.161 274.796C260.182 274.808 260.203 274.82 260.224 274.831L261.118 275.215C261.156 275.231 261.188 275.26 261.207 275.297C261.226 275.334 261.232 275.376 261.224 275.417C261.216 275.458 261.193 275.494 261.161 275.521C261.129 275.547 261.089 275.561 261.047 275.561L261.047 275.561ZM209.575 242.466L258.093 273.475C257.759 273.028 257.457 272.493 257.227 271.852C255.803 267.892 257.818 262.069 263.216 254.546C269.107 246.337 269.915 240.634 269.961 236.584C270.007 232.479 267.932 229.239 264.674 228.328C264.66 228.324 264.646 228.319 264.634 228.312L220.318 203.505L209.575 242.466Z" fill="black"/>
<path d="M266.48 228.926C266.48 228.926 260.645 225.034 253.551 229.497C243.335 235.924 245.117 262.046 241.695 274.673C238.35 287.019 228.642 295.121 225.998 297.05C216.476 303.995 178.904 326.629 178.904 326.629L114.561 290.021L166.031 260.271C172.341 256.624 176.438 250.099 176.99 242.835C177.97 229.949 178.402 213.253 183.299 203.235C184.587 200.6 187.224 196.594 192.313 193.764C196.815 191.262 202.322 191.396 206.767 193.996L266.48 228.927V228.926Z" fill="white"/>
<path d="M178.904 326.81C178.873 326.81 178.842 326.802 178.814 326.786L114.471 290.178C114.443 290.163 114.42 290.14 114.404 290.112C114.388 290.085 114.38 290.054 114.38 290.022C114.38 289.99 114.388 289.959 114.404 289.931C114.42 289.904 114.443 289.881 114.47 289.865L165.941 260.114C172.199 256.497 176.262 250.032 176.81 242.821C176.948 241.011 177.073 239.156 177.205 237.193C178.005 225.289 178.913 211.797 183.137 203.155C184.514 200.339 187.208 196.396 192.226 193.606C196.728 191.104 202.334 191.194 206.858 193.84L266.269 228.593C266.466 228.701 266.573 228.771 266.581 228.776C266.62 228.802 266.648 228.842 266.658 228.888C266.667 228.934 266.659 228.982 266.634 229.022C266.609 229.062 266.57 229.091 266.524 229.102C266.478 229.113 266.43 229.106 266.39 229.082L266.076 228.899C264.796 228.201 259.652 225.873 253.647 229.65C246.773 233.974 245.366 247.545 244.125 259.519C243.53 265.252 242.969 270.667 241.87 274.72C238.267 288.017 227.339 296.296 226.104 297.196C216.685 304.066 179.373 326.557 178.998 326.783C178.969 326.8 178.937 326.809 178.904 326.809L178.904 326.81ZM114.924 290.02L178.901 326.42C180.969 325.173 216.711 303.599 225.891 296.904C227.115 296.012 237.95 287.803 241.521 274.626C242.611 270.601 243.172 265.2 243.764 259.482C245.015 247.426 246.432 233.762 253.454 229.345C257.713 226.666 261.558 226.977 263.969 227.667L206.676 194.152C202.262 191.57 196.792 191.482 192.401 193.922C187.466 196.666 184.816 200.544 183.462 203.314C179.268 211.892 178.364 225.347 177.565 237.217C177.433 239.182 177.309 241.037 177.171 242.849C176.614 250.179 172.483 256.75 166.122 260.427L114.924 290.02Z" fill="black"/>
<path d="M172.466 289.28L162.58 283.573L159.262 285.483L155.92 283.552L159.232 281.647L159.226 281.643L159.232 281.64L156.096 279.83L146.161 285.543L146.166 285.546L146.161 285.549L155.81 291.13L159.052 289.262L162.436 291.221L152.728 296.817L152.734 296.821L152.728 296.824L156.057 298.752L172.466 289.286L172.46 289.283L172.466 289.28Z" fill="#ADC4CB"/>
<path d="M156.057 298.933C156.025 298.933 155.994 298.924 155.966 298.908L152.637 296.98C152.6 296.959 152.571 296.924 152.557 296.882C152.543 296.841 152.544 296.796 152.56 296.756C152.574 296.716 152.601 296.682 152.637 296.661L162.074 291.221L159.052 289.471L155.9 291.287C155.873 291.303 155.842 291.311 155.81 291.311C155.778 291.311 155.747 291.303 155.719 291.287L146.07 285.706C146.032 285.684 146.004 285.649 145.989 285.608C145.975 285.566 145.977 285.521 145.993 285.481C146.007 285.441 146.034 285.408 146.07 285.386L156.006 279.674C156.062 279.641 156.13 279.641 156.186 279.674L159.322 281.484C159.36 281.506 159.389 281.541 159.403 281.582C159.417 281.623 159.415 281.668 159.399 281.709C159.386 281.749 159.358 281.782 159.322 281.803L156.281 283.553L159.262 285.275L162.49 283.417C162.546 283.384 162.615 283.385 162.671 283.417L172.557 289.123C172.595 289.145 172.623 289.18 172.637 289.221C172.652 289.262 172.65 289.307 172.634 289.348C172.621 289.388 172.593 289.422 172.557 289.443L156.148 298.909C156.12 298.925 156.089 298.933 156.057 298.933L156.057 298.933ZM153.083 296.821L156.057 298.543L172.111 289.283L162.58 283.781L159.353 285.64C159.297 285.672 159.228 285.672 159.172 285.64L155.829 283.709C155.802 283.693 155.779 283.67 155.763 283.642C155.747 283.615 155.739 283.584 155.739 283.552C155.739 283.52 155.747 283.489 155.763 283.462C155.779 283.434 155.802 283.412 155.829 283.396L158.876 281.643L156.096 280.038L146.516 285.546L155.81 290.921L158.962 289.106C158.989 289.09 159.02 289.082 159.052 289.082C159.084 289.082 159.115 289.09 159.143 289.106L162.526 291.064C162.554 291.08 162.576 291.103 162.592 291.131C162.608 291.158 162.616 291.189 162.616 291.221C162.616 291.253 162.608 291.284 162.592 291.311C162.576 291.339 162.553 291.361 162.526 291.377L153.083 296.821V296.821Z" fill="black"/>
<path d="M175.967 268.411L159.596 277.824L175.967 287.267L192.338 277.824L175.967 268.411ZM175.815 283.515L165.927 277.814L175.816 272.125L185.704 277.814L175.815 283.515Z" fill="#ADC4CB"/>
<path d="M175.967 287.448C175.935 287.448 175.904 287.439 175.877 287.423L159.506 277.98C159.479 277.964 159.456 277.941 159.44 277.914C159.424 277.886 159.416 277.855 159.416 277.824C159.416 277.792 159.424 277.761 159.44 277.733C159.456 277.706 159.479 277.683 159.506 277.667L175.877 268.254C175.904 268.238 175.935 268.23 175.967 268.23C175.999 268.23 176.03 268.238 176.057 268.254L192.428 277.667C192.455 277.683 192.478 277.705 192.494 277.733C192.51 277.76 192.519 277.792 192.519 277.823C192.519 277.855 192.51 277.886 192.494 277.914C192.479 277.941 192.456 277.964 192.428 277.98L176.057 287.423C176.03 287.439 175.999 287.448 175.967 287.448V287.448ZM159.959 277.824L175.967 287.058L191.976 277.824L175.967 268.619L159.959 277.824ZM175.815 283.695C175.784 283.695 175.753 283.687 175.725 283.671L165.837 277.971C165.809 277.955 165.787 277.932 165.771 277.905C165.755 277.877 165.746 277.846 165.747 277.814C165.747 277.782 165.755 277.751 165.771 277.724C165.787 277.696 165.81 277.673 165.837 277.658L175.726 271.968C175.781 271.936 175.85 271.936 175.906 271.968L185.794 277.658C185.822 277.673 185.845 277.696 185.861 277.724C185.876 277.751 185.885 277.782 185.885 277.814C185.885 277.846 185.876 277.877 185.861 277.905C185.845 277.932 185.822 277.955 185.794 277.971L175.906 283.671C175.878 283.687 175.847 283.695 175.815 283.695V283.695ZM166.289 277.814L175.815 283.306L185.342 277.814L175.816 272.333L166.289 277.814Z" fill="black"/>
<path d="M195.95 279.894L179.579 289.344L196.014 298.825L212.385 289.344L195.95 279.894ZM195.85 295.058L185.923 289.335L195.811 283.623L205.738 289.335L195.85 295.058H195.85Z" fill="#ADC4CB"/>
<path d="M196.014 299.005C195.983 299.005 195.951 298.997 195.924 298.981L179.489 289.501C179.462 289.485 179.439 289.462 179.423 289.435C179.407 289.407 179.399 289.376 179.399 289.344C179.399 289.312 179.407 289.281 179.423 289.254C179.439 289.226 179.462 289.204 179.489 289.188L195.86 279.738C195.887 279.722 195.918 279.713 195.95 279.713C195.982 279.713 196.013 279.722 196.04 279.738L212.475 289.188C212.503 289.203 212.526 289.226 212.542 289.254C212.558 289.281 212.566 289.312 212.566 289.344C212.566 289.376 212.558 289.407 212.542 289.435C212.526 289.462 212.503 289.485 212.475 289.501L196.105 298.981C196.077 298.997 196.046 299.006 196.014 299.006V299.005ZM179.941 289.344L196.014 298.616L212.023 289.345L195.95 280.103L179.941 289.344ZM195.85 295.238C195.818 295.238 195.787 295.23 195.759 295.214L185.832 289.491C185.805 289.475 185.782 289.453 185.766 289.425C185.75 289.398 185.742 289.367 185.742 289.335C185.742 289.303 185.75 289.272 185.766 289.244C185.782 289.217 185.805 289.194 185.832 289.178L195.721 283.466C195.748 283.451 195.779 283.442 195.811 283.442C195.843 283.442 195.874 283.451 195.901 283.466L205.828 289.178C205.856 289.194 205.878 289.217 205.894 289.244C205.91 289.272 205.919 289.303 205.919 289.335C205.919 289.366 205.91 289.397 205.895 289.425C205.879 289.452 205.856 289.475 205.828 289.491L195.94 295.214C195.912 295.23 195.881 295.238 195.849 295.238L195.85 295.238ZM186.284 289.335L195.849 294.849L205.377 289.335L195.811 283.831L186.284 289.334L186.284 289.335Z" fill="black"/>
<path d="M176.365 291.573L159.994 301.023L176.429 310.504L192.799 301.023L176.365 291.573ZM176.264 306.737L166.337 301.014L176.226 295.302L186.153 301.014L176.264 306.737H176.264Z" fill="#ADC4CB"/>
<path d="M176.429 310.685C176.397 310.685 176.366 310.676 176.338 310.66L159.904 301.18C159.876 301.164 159.853 301.141 159.837 301.114C159.822 301.086 159.813 301.055 159.813 301.023C159.813 300.991 159.822 300.96 159.837 300.933C159.853 300.905 159.876 300.883 159.904 300.867L176.274 291.417C176.302 291.401 176.333 291.393 176.365 291.393C176.396 291.393 176.427 291.401 176.455 291.417L192.89 300.867C192.917 300.882 192.94 300.905 192.956 300.933C192.972 300.96 192.981 300.991 192.981 301.023C192.981 301.055 192.972 301.086 192.956 301.114C192.94 301.141 192.918 301.164 192.89 301.18L176.519 310.66C176.492 310.676 176.461 310.685 176.429 310.685V310.685ZM160.355 301.023L176.429 310.295L192.438 301.024L176.365 291.782L160.355 301.023ZM176.264 306.918C176.232 306.918 176.201 306.909 176.174 306.893L166.247 301.171C166.219 301.155 166.196 301.132 166.18 301.105C166.164 301.077 166.156 301.046 166.156 301.014C166.156 300.982 166.164 300.951 166.18 300.924C166.196 300.896 166.219 300.873 166.247 300.858L176.135 295.146C176.163 295.13 176.194 295.122 176.226 295.122C176.257 295.122 176.289 295.13 176.316 295.146L186.243 300.858C186.27 300.873 186.293 300.896 186.309 300.924C186.325 300.951 186.333 300.982 186.333 301.014C186.333 301.046 186.325 301.077 186.309 301.104C186.293 301.132 186.271 301.155 186.243 301.17L176.355 306.893C176.327 306.909 176.296 306.918 176.264 306.918L176.264 306.918ZM166.699 301.014L176.264 306.528L185.791 301.014L176.226 295.511L166.699 301.014V301.014Z" fill="black"/>
<path d="M195.682 287.443L192.361 289.362V289.369L195.636 291.255L198.956 289.335V289.328L195.682 287.443Z" fill="#ADC4CB"/>
<path d="M195.636 291.436C195.604 291.436 195.573 291.428 195.545 291.412L192.271 289.525C192.215 289.493 192.18 289.433 192.18 289.369C192.18 289.304 192.215 289.238 192.271 289.206L195.591 287.286C195.619 287.27 195.65 287.262 195.682 287.262C195.714 287.262 195.745 287.27 195.772 287.286L199.047 289.171C199.074 289.187 199.097 289.21 199.113 289.238C199.129 289.266 199.137 289.297 199.137 289.329C199.137 289.393 199.102 289.459 199.047 289.491L195.726 291.412C195.699 291.428 195.667 291.436 195.636 291.436V291.436ZM192.717 289.365L195.635 291.047L198.601 289.332L195.682 287.651L192.717 289.365Z" fill="black"/>
<path d="M175.695 275.935L172.374 277.847V277.853L175.615 279.721L178.936 277.808V277.801L175.695 275.935Z" fill="#ADC4CB"/>
<path d="M175.615 279.901C175.583 279.901 175.552 279.893 175.524 279.877L172.283 278.01C172.227 277.978 172.193 277.918 172.193 277.854C172.193 277.789 172.228 277.723 172.284 277.69L175.604 275.779C175.632 275.763 175.663 275.754 175.695 275.754C175.726 275.754 175.757 275.763 175.785 275.779L179.025 277.644C179.081 277.677 179.116 277.736 179.116 277.801C179.116 277.866 179.081 277.932 179.025 277.964L175.705 279.877C175.677 279.893 175.646 279.901 175.614 279.901L175.615 279.901ZM172.73 277.85L175.615 279.512L178.579 277.804L175.695 276.143L172.73 277.85L172.73 277.85Z" fill="black"/>
<path d="M175.813 298.945L172.559 300.826V300.832L175.813 302.714L179.067 300.832V300.826L175.813 298.945Z" fill="#ADC4CB"/>
<path d="M175.813 302.895C175.782 302.895 175.75 302.886 175.722 302.87L172.469 300.989C172.441 300.973 172.419 300.95 172.403 300.923C172.387 300.895 172.379 300.864 172.379 300.832C172.379 300.768 172.413 300.701 172.469 300.669L175.723 298.789C175.75 298.773 175.781 298.764 175.813 298.764C175.845 298.764 175.876 298.773 175.903 298.789L179.157 300.669C179.213 300.701 179.247 300.761 179.247 300.826C179.247 300.89 179.213 300.957 179.157 300.989L175.903 302.87C175.876 302.886 175.845 302.894 175.813 302.895H175.813ZM172.914 300.829L175.813 302.505L178.711 300.829L175.813 299.153L172.914 300.829Z" fill="black"/>
<path d="M152.858 293.13L149.618 291.254L146.36 293.129L146.36 293.136L149.601 295.013L152.858 293.136V293.13Z" fill="#ADC4CB"/>
<path d="M149.601 295.194C149.569 295.194 149.538 295.185 149.51 295.169L146.269 293.293C146.242 293.277 146.219 293.254 146.204 293.227C146.188 293.2 146.179 293.169 146.179 293.137C146.179 293.072 146.213 293.006 146.27 292.973L149.527 291.097C149.555 291.082 149.586 291.073 149.618 291.073C149.649 291.073 149.68 291.082 149.708 291.098L152.949 292.973C152.976 292.989 152.999 293.012 153.014 293.039C153.03 293.066 153.039 293.097 153.039 293.128V293.135C153.039 293.167 153.031 293.198 153.015 293.226C152.999 293.254 152.976 293.277 152.949 293.293L149.691 295.17C149.663 295.185 149.632 295.194 149.601 295.194H149.601ZM146.715 293.133L149.601 294.805L152.503 293.133L149.617 291.463L146.715 293.134L146.715 293.133Z" fill="black"/>
<path d="M142.944 287.392L139.687 289.265V289.272L142.923 291.146L146.181 289.272V289.265L142.944 287.392Z" fill="#ADC4CB"/>
<path d="M142.923 291.327C142.891 291.327 142.86 291.318 142.833 291.302L139.596 289.428C139.54 289.396 139.506 289.336 139.506 289.272C139.506 289.207 139.54 289.14 139.596 289.108L142.854 287.235C142.881 287.219 142.913 287.211 142.944 287.211C142.976 287.211 143.007 287.219 143.035 287.235L146.271 289.108C146.327 289.141 146.362 289.2 146.362 289.265C146.362 289.329 146.327 289.396 146.271 289.428L143.013 291.302C142.986 291.318 142.955 291.326 142.923 291.326V291.327ZM140.042 289.269L142.924 290.937L145.825 289.268L142.944 287.6L140.042 289.269Z" fill="black"/>
<path d="M141.836 293.353C141.804 293.353 141.772 293.344 141.744 293.327L135.343 289.515C135.315 289.498 135.293 289.475 135.278 289.448C135.262 289.421 135.254 289.389 135.254 289.358C135.255 289.326 135.263 289.296 135.279 289.268C135.295 289.241 135.318 289.218 135.345 289.203L142.283 285.216C142.304 285.205 142.326 285.197 142.35 285.194C142.373 285.191 142.397 285.192 142.42 285.199C142.443 285.205 142.465 285.216 142.483 285.23C142.502 285.245 142.518 285.263 142.53 285.283C142.542 285.304 142.549 285.326 142.552 285.35C142.555 285.374 142.554 285.397 142.547 285.42C142.541 285.443 142.531 285.465 142.516 285.484C142.502 285.502 142.484 285.518 142.463 285.53L135.793 289.362L141.929 293.017C141.963 293.037 141.99 293.068 142.005 293.105C142.019 293.141 142.022 293.182 142.011 293.22C142.001 293.258 141.978 293.292 141.946 293.316C141.915 293.34 141.876 293.353 141.837 293.353L141.836 293.353ZM176.245 313.845C176.212 313.845 176.18 313.836 176.152 313.819L170.846 310.659C170.805 310.635 170.776 310.595 170.764 310.548C170.752 310.502 170.759 310.453 170.784 310.411C170.808 310.37 170.848 310.341 170.895 310.329C170.941 310.317 170.99 310.324 171.032 310.349L176.245 313.454L182.737 309.609C182.757 309.597 182.78 309.589 182.803 309.586C182.827 309.583 182.851 309.584 182.874 309.59C182.897 309.596 182.918 309.606 182.937 309.62C182.956 309.635 182.972 309.652 182.984 309.673C182.996 309.693 183.004 309.716 183.008 309.739C183.011 309.763 183.01 309.787 183.004 309.81C182.998 309.833 182.988 309.854 182.973 309.873C182.959 309.892 182.941 309.908 182.921 309.92L176.337 313.819C176.309 313.836 176.277 313.845 176.245 313.845L176.245 313.845ZM210.914 293.314C210.874 293.314 210.836 293.301 210.804 293.277C210.773 293.253 210.75 293.219 210.739 293.181C210.729 293.143 210.731 293.102 210.746 293.066C210.761 293.029 210.787 292.998 210.822 292.978L216.928 289.362L211.22 286.076C211.179 286.052 211.149 286.013 211.136 285.966C211.124 285.92 211.13 285.871 211.154 285.829C211.178 285.788 211.217 285.757 211.264 285.745C211.31 285.732 211.359 285.739 211.401 285.763L217.377 289.203C217.404 289.218 217.427 289.241 217.443 289.268C217.459 289.295 217.467 289.326 217.467 289.358C217.468 289.39 217.46 289.421 217.444 289.448C217.429 289.476 217.406 289.498 217.379 289.515L211.006 293.289C210.978 293.305 210.946 293.314 210.914 293.314V293.314ZM170.939 269.14C170.899 269.14 170.861 269.127 170.829 269.102C170.797 269.078 170.775 269.044 170.764 269.006C170.754 268.967 170.757 268.926 170.772 268.89C170.787 268.853 170.814 268.822 170.849 268.802L176.307 265.666C176.362 265.634 176.431 265.634 176.487 265.666L181.389 268.488C181.43 268.512 181.461 268.551 181.473 268.598C181.486 268.644 181.479 268.693 181.455 268.735C181.431 268.776 181.392 268.807 181.346 268.819C181.299 268.832 181.25 268.825 181.208 268.801L176.397 266.032L171.029 269.116C171.002 269.131 170.971 269.14 170.939 269.14V269.14Z" fill="black"/>
<path d="M188.377 211.631L238.6 241.009Z" fill="white"/>
<path d="M238.6 241.19C238.568 241.19 238.536 241.181 238.509 241.165L188.286 211.787C188.265 211.775 188.247 211.759 188.232 211.74C188.218 211.721 188.207 211.7 188.201 211.676C188.194 211.653 188.193 211.629 188.196 211.605C188.199 211.582 188.207 211.559 188.219 211.538C188.231 211.517 188.247 211.499 188.266 211.485C188.286 211.471 188.307 211.46 188.331 211.454C188.354 211.448 188.378 211.447 188.402 211.451C188.425 211.454 188.448 211.462 188.469 211.475L238.691 240.853C238.725 240.873 238.752 240.904 238.767 240.941C238.782 240.978 238.785 241.018 238.774 241.056C238.764 241.095 238.741 241.129 238.71 241.153C238.678 241.177 238.639 241.19 238.6 241.19L238.6 241.19Z" fill="black"/>
<path d="M185.802 224.618L236.025 253.997Z" fill="white"/>
<path d="M236.025 254.178C235.993 254.178 235.961 254.169 235.933 254.153L185.711 224.774C185.69 224.763 185.672 224.747 185.657 224.728C185.643 224.709 185.632 224.687 185.626 224.664C185.619 224.641 185.618 224.617 185.621 224.593C185.624 224.569 185.632 224.547 185.644 224.526C185.656 224.505 185.672 224.487 185.691 224.473C185.711 224.458 185.732 224.448 185.756 224.442C185.779 224.436 185.803 224.435 185.827 224.438C185.85 224.442 185.873 224.45 185.894 224.463L236.116 253.841C236.15 253.861 236.177 253.892 236.192 253.929C236.207 253.965 236.21 254.006 236.199 254.044C236.189 254.083 236.166 254.116 236.134 254.141C236.103 254.165 236.064 254.178 236.025 254.178V254.178Z" fill="black"/>
<path d="M221.395 256.894L234.477 264.547Z" fill="white"/>
<path d="M234.476 264.727C234.444 264.727 234.413 264.719 234.385 264.702L221.304 257.05C221.283 257.038 221.265 257.023 221.25 257.004C221.235 256.985 221.224 256.963 221.218 256.94C221.212 256.917 221.21 256.893 221.214 256.869C221.217 256.845 221.225 256.822 221.237 256.802C221.249 256.781 221.265 256.763 221.284 256.749C221.303 256.734 221.325 256.724 221.348 256.718C221.371 256.712 221.396 256.711 221.419 256.714C221.443 256.718 221.466 256.726 221.486 256.738L234.568 264.391C234.602 264.411 234.629 264.441 234.644 264.478C234.659 264.515 234.661 264.556 234.651 264.594C234.641 264.632 234.618 264.666 234.586 264.69C234.555 264.714 234.516 264.727 234.476 264.727Z" fill="black"/>
<path d="M184.254 235.168L214.665 252.957Z" fill="white"/>
<path d="M214.665 253.138C214.633 253.138 214.601 253.129 214.574 253.113L184.163 235.324C184.142 235.312 184.124 235.296 184.109 235.277C184.094 235.259 184.084 235.237 184.077 235.214C184.071 235.191 184.07 235.167 184.073 235.143C184.076 235.119 184.084 235.096 184.096 235.076C184.108 235.055 184.124 235.037 184.143 235.022C184.162 235.008 184.184 234.998 184.207 234.992C184.231 234.986 184.255 234.985 184.278 234.988C184.302 234.992 184.325 235 184.345 235.012L214.756 252.801C214.79 252.821 214.817 252.852 214.832 252.889C214.847 252.926 214.85 252.966 214.839 253.005C214.829 253.043 214.806 253.077 214.775 253.101C214.743 253.125 214.704 253.138 214.665 253.138Z" fill="black"/>
<path d="M264.588 191.964L314.811 221.343Z" fill="white"/>
<path d="M314.811 221.523C314.779 221.523 314.747 221.515 314.72 221.499L264.497 192.12C264.476 192.108 264.458 192.093 264.443 192.074C264.429 192.055 264.418 192.033 264.412 192.01C264.405 191.987 264.404 191.963 264.407 191.939C264.41 191.915 264.418 191.892 264.43 191.872C264.442 191.851 264.458 191.833 264.478 191.819C264.497 191.804 264.518 191.794 264.542 191.788C264.565 191.782 264.589 191.781 264.613 191.784C264.636 191.788 264.659 191.796 264.68 191.808L314.902 221.187C314.937 221.207 314.963 221.238 314.978 221.274C314.993 221.311 314.996 221.352 314.985 221.39C314.975 221.428 314.952 221.462 314.921 221.486C314.889 221.51 314.851 221.524 314.811 221.523V221.523Z" fill="black"/>
</g>
<g clip-path="url(#clip8_49_991)">
<path d="M328.579 216.99C328.745 214.498 326.6 213.351 324.768 212.296L308.088 202.689L263.48 176.998C262.471 176.417 257.823 173.223 256.646 174.91C255.372 176.735 257.754 178.198 259.092 178.976C272.056 186.514 285.079 193.954 298.072 201.442L319.435 213.756L325.392 217.189C325.925 217.496 326.877 218.263 327.55 218.159C328.165 218.064 328.541 217.608 328.579 216.99V216.99Z" fill="black"/>
<path d="M327.419 218.349C326.855 218.349 326.211 217.93 325.684 217.587C325.543 217.496 325.411 217.409 325.301 217.346L297.981 201.599C293.645 199.1 289.306 196.607 284.967 194.113C276.448 189.218 267.639 184.156 259.001 179.132C258.166 178.647 256.431 177.638 256.143 176.34C256.029 175.822 256.148 175.306 256.497 174.806C257.635 173.176 261.452 175.536 263.082 176.544C263.287 176.671 263.454 176.774 263.571 176.841L325.034 212.239C326.859 213.288 328.928 214.476 328.76 217.001C328.716 217.72 328.263 218.232 327.577 218.338C327.525 218.346 327.472 218.35 327.419 218.349V218.349ZM257.75 174.601C257.334 174.601 256.999 174.721 256.795 175.013C256.502 175.433 256.405 175.841 256.498 176.261C256.751 177.405 258.394 178.36 259.184 178.819C267.821 183.842 276.63 188.904 285.149 193.799C289.488 196.293 293.827 198.787 298.163 201.286L325.483 217.032C325.601 217.1 325.738 217.189 325.882 217.283C326.38 217.607 327.061 218.051 327.522 217.979C328.037 217.9 328.364 217.526 328.398 216.979V216.978C328.551 214.678 326.671 213.598 324.853 212.553L324.677 212.452L263.39 177.155C263.27 177.086 263.1 176.981 262.891 176.852C261.787 176.169 259.25 174.601 257.75 174.601Z" fill="black"/>
</g>
<g clip-path="url(#clip9_49_991)">
<path d="M128.479 100.827L135.874 104.077L138.453 100.072L138.655 134.293L173.702 113.913L173.651 79.7428L176.028 80.8075L183.614 68.995L176.976 61.605C176.259 60.8072 175.321 60.2414 174.283 59.9798C173.244 59.7181 172.151 59.7725 171.143 60.1359L165.724 62.0905C165.724 62.0905 165.675 68.6288 159.402 73.788C147.961 83.1974 146.747 73 146.747 73L141.524 77.2634C138.683 79.5826 136.436 82.5491 134.97 85.9155L128.479 100.827Z" fill="#ADC4CB"/>
<path d="M138.655 134.474C138.608 134.474 138.562 134.455 138.528 134.421C138.495 134.388 138.476 134.342 138.475 134.294L138.276 100.68L136.025 104.176C136.002 104.212 135.967 104.239 135.926 104.251C135.885 104.263 135.841 104.261 135.802 104.243L128.407 100.993C128.363 100.973 128.329 100.938 128.311 100.893C128.294 100.848 128.295 100.799 128.314 100.755L134.805 85.8437C136.275 82.4659 138.559 79.4505 141.41 77.1236L146.633 72.8602C146.658 72.8399 146.688 72.8266 146.72 72.8218C146.752 72.817 146.784 72.8209 146.814 72.833C146.844 72.8451 146.87 72.865 146.89 72.8906C146.909 72.9163 146.922 72.9467 146.926 72.9788C146.93 73.0122 147.355 76.3251 149.808 77.3128C152.046 78.2137 155.235 76.9811 159.288 73.6485C165.418 68.607 165.543 62.1539 165.544 62.0893C165.544 62.0138 165.592 61.9464 165.663 61.9207L171.082 59.9664C173.222 59.1947 175.588 59.7905 177.109 61.4845L183.748 68.8743C183.774 68.9038 183.79 68.9412 183.794 68.9807C183.797 69.0202 183.787 69.0597 183.766 69.0931L176.18 80.9055C176.156 80.9418 176.121 80.9685 176.08 80.9809C176.038 80.9932 175.994 80.9903 175.955 80.9728L173.832 80.0219L173.882 113.912C173.882 113.944 173.874 113.975 173.858 114.003C173.842 114.03 173.82 114.053 173.792 114.069L138.746 134.45C138.718 134.466 138.687 134.474 138.655 134.474H138.655ZM138.453 99.8918C138.501 99.8919 138.546 99.9109 138.58 99.9445C138.614 99.9781 138.633 100.024 138.633 100.071L138.834 133.98L173.521 113.809L173.471 79.7434C173.471 79.7132 173.478 79.6835 173.493 79.657C173.507 79.6305 173.528 79.608 173.553 79.5916C173.578 79.5752 173.607 79.5653 173.637 79.563C173.667 79.5606 173.697 79.5659 173.725 79.5782L175.961 80.5796L183.388 69.0139L176.842 61.7267C175.418 60.1425 173.206 59.585 171.204 60.3068L165.899 62.2202C165.849 63.1663 165.301 69.1708 159.516 73.9285C156.257 76.6095 153.518 77.9583 151.346 77.9585C150.744 77.9585 150.186 77.8551 149.672 77.6478C147.46 76.7559 146.79 74.234 146.619 73.338L141.638 77.4041C138.831 79.6949 136.583 82.6633 135.135 85.9884L128.716 100.734L135.806 103.851L138.302 99.9748C138.336 99.9223 138.393 99.892 138.453 99.892L138.453 99.8918Z" fill="black"/>
</g>
<g clip-path="url(#clip10_49_991)">
<path d="M169.373 150.084L145.883 163.474C145.883 163.474 143.759 162.76 142.168 161.378C139.87 159.384 139.87 155.998 139.87 155.998C139.989 152.425 141.019 148.941 142.863 145.878C144.707 142.816 147.303 140.276 150.405 138.5L171.912 126.188C173.398 125.336 175.029 125.25 176.456 125.726C178.62 126.447 181.128 128.278 181.128 128.278C181.128 128.278 176.125 146.332 169.373 150.084Z" fill="white"/>
<path d="M145.883 163.657C145.863 163.657 145.844 163.654 145.825 163.647C145.737 163.618 143.648 162.906 142.048 161.517C139.714 159.491 139.687 156.14 139.687 155.998C139.808 152.392 140.847 148.876 142.706 145.784C144.568 142.696 147.186 140.134 150.314 138.341L171.821 126.029C173.274 125.197 174.94 125.027 176.514 125.552C178.68 126.274 181.133 128.054 181.236 128.13C181.266 128.152 181.289 128.182 181.301 128.218C181.313 128.253 181.314 128.291 181.304 128.327C181.099 129.067 176.204 146.496 169.463 150.244L145.974 163.633C145.946 163.649 145.915 163.657 145.883 163.657V163.657ZM174.692 125.62C173.764 125.62 172.845 125.864 172.003 126.347L150.496 138.659C144.198 142.265 140.294 148.749 140.053 156.004C140.053 156.031 140.082 159.326 142.288 161.24C143.666 162.437 145.475 163.132 145.865 163.273L169.283 149.926L169.284 149.925C175.602 146.413 180.459 129.948 180.916 128.352C180.423 128.004 178.265 126.522 176.398 125.9C175.848 125.715 175.272 125.621 174.691 125.62L174.692 125.62Z" fill="black"/>
<path d="M172.309 151.696L151.273 163.388C147.39 165.546 142.639 162.642 142.787 158.2L142.806 157.61C142.925 154.037 143.955 150.553 145.799 147.49C147.643 144.428 150.239 141.888 153.341 140.112L174.848 127.8C178.59 125.657 183.25 128.361 183.25 132.675V133.095C183.25 140.823 179.062 147.944 172.31 151.696H172.309Z" fill="white"/>
<path d="M148.495 164.302C147.435 164.302 146.377 164.009 145.423 163.425C143.586 162.302 142.532 160.347 142.604 158.194L142.623 157.604C142.745 154 143.784 150.486 145.643 147.396C147.504 144.308 150.123 141.746 153.25 139.953L174.757 127.641C176.572 126.602 178.735 126.608 180.544 127.658C182.353 128.707 183.433 130.583 183.433 132.675V133.095C183.433 140.885 179.205 148.074 172.398 151.857L151.362 163.549C150.458 164.051 149.475 164.302 148.495 164.302L148.495 164.302ZM177.636 127.233C176.71 127.233 175.784 127.475 174.939 127.959L153.432 140.271C147.134 143.877 143.231 150.361 142.99 157.616L142.97 158.206C142.903 160.225 143.891 162.059 145.614 163.113C147.337 164.166 149.419 164.209 151.184 163.228L172.221 151.536L172.31 151.696L172.221 151.536C178.911 147.818 183.066 140.752 183.066 133.095V132.675C183.066 130.715 182.055 128.958 180.36 127.974C179.508 127.48 178.572 127.233 177.636 127.233V127.233Z" fill="black"/>
</g>
<defs>
<clipPath id="clip0_49_991">
<rect width="158.352" height="217.463" fill="white" transform="translate(36.8306 19.6864)"/>
</clipPath>
<clipPath id="clip1_49_991">
<rect width="97.2527" height="249.097" fill="white" transform="translate(250.497 11.1903)"/>
</clipPath>
<clipPath id="clip2_49_991">
<rect width="106.11" height="132.322" fill="white" transform="translate(215.428 53.6706)"/>
</clipPath>
<clipPath id="clip3_49_991">
<rect width="75.7414" height="117.679" fill="white" transform="translate(52.5574 140.077)"/>
</clipPath>
<clipPath id="clip4_49_991">
<rect width="63.9916" height="100.145" fill="white" transform="translate(84.3723 169.542)"/>
</clipPath>
<clipPath id="clip5_49_991">
<rect width="54.2301" height="71.0415" fill="white" transform="translate(27.25 111.697)"/>
</clipPath>
<clipPath id="clip6_49_991">
<rect width="26.0305" height="33.9842" fill="white" transform="translate(44.9651 131.581)"/>
</clipPath>
<clipPath id="clip7_49_991">
<rect width="210.774" height="150.398" fill="white" transform="translate(114.38 176.411)"/>
</clipPath>
<clipPath id="clip8_49_991">
<rect width="72.6684" height="44.1072" fill="white" transform="translate(256.101 174.242)"/>
</clipPath>
<clipPath id="clip9_49_991">
<rect width="55.4955" height="74.8376" fill="white" transform="translate(128.299 59.6359)"/>
</clipPath>
<clipPath id="clip10_49_991">
<rect width="43.7456" height="39.0457" fill="white" transform="translate(139.687 125.254)"/>
</clipPath>
</defs>
</svg>
